<svg xmlns="http://www.w3.org/2000/svg" width="736" height="884" viewBox="0 0 736 884">
  <g fill="#EDEDED" fill-rule="evenodd" opacity=".747" transform="translate(0 -9)">
    <g opacity=".789">
      <g transform="translate(128.453 3.188)">
        <polygon points="19.096 118.056 6.464 90.313 32.168 90.11" transform="rotate(-135 19.316 104.083)"/>
        <polygon points="19.43 292.408 6.68 264.342 32.18 264.342" transform="rotate(-90 19.43 278.375)"/>
        <polygon points="19.096 460.181 6.464 432.438 32.168 432.235" transform="rotate(-135.001 19.316 446.208)"/>
        <ellipse cx="15.652" cy="194.969" rx="9.175" ry="10.094"/>
        <ellipse cx="15.652" cy="361.781" rx="9.175" ry="10.094"/>
        <ellipse cx="15.652" cy="19.656" rx="9.175" ry="10.094"/>
        <polygon points="82.783 33.057 70.151 5.313 95.855 5.11" transform="rotate(-135 83.003 19.083)"/>
        <polygon points="83.117 207.408 70.367 179.342 95.867 179.342" transform="rotate(-90 83.117 193.375)"/>
        <polygon points="82.783 374.119 70.151 346.375 95.855 346.172" transform="rotate(-135.001 83.003 360.146)"/>
        <ellipse cx="79.339" cy="108.906" rx="9.175" ry="10.094"/>
        <ellipse cx="79.339" cy="276.781" rx="9.175" ry="10.094"/>
        <ellipse cx="79.339" cy="451.031" rx="9.175" ry="10.094"/>
        <polygon points="82.783 534.557 70.151 506.813 95.855 506.61" transform="rotate(-135 83.003 520.583)"/>
        <polygon points="82.037 707.845 69.287 679.78 94.787 679.78" transform="rotate(-90 82.037 693.813)"/>
        <polygon points="82.783 875.619 70.151 847.875 95.855 847.672" transform="rotate(-135.001 83.003 861.646)"/>
        <ellipse cx="78.259" cy="610.406" rx="9.175" ry="10.094"/>
        <ellipse cx="78.259" cy="777.219" rx="9.175" ry="10.094"/>
        <polygon points="19.096 619.557 6.464 591.813 32.168 591.61" transform="rotate(-135 19.316 605.583)"/>
        <polygon points="18.35 792.845 5.6 764.78 31.1 764.78" transform="rotate(-90 18.35 778.813)"/>
        <ellipse cx="14.572" cy="695.406" rx="9.175" ry="10.094"/>
        <ellipse cx="14.572" cy="862.219" rx="9.175" ry="10.094"/>
        <ellipse cx="14.572" cy="520.094" rx="9.175" ry="10.094"/>
      </g>
      <polygon points="19.096 118.056 6.464 90.313 32.168 90.11" transform="rotate(-135 19.316 104.083)"/>
      <polygon points="19.43 292.408 6.68 264.342 32.18 264.342" transform="rotate(-90 19.43 278.375)"/>
      <polygon points="19.096 460.181 6.464 432.438 32.168 432.235" transform="rotate(-135.001 19.316 446.208)"/>
      <ellipse cx="15.652" cy="194.969" rx="9.175" ry="10.094"/>
      <ellipse cx="15.652" cy="361.781" rx="9.175" ry="10.094"/>
      <ellipse cx="15.652" cy="19.656" rx="9.175" ry="10.094"/>
      <polygon points="82.783 33.057 70.151 5.313 95.855 5.11" transform="rotate(-135 83.003 19.083)"/>
      <polygon points="83.117 207.408 70.367 179.342 95.867 179.342" transform="rotate(-90 83.117 193.375)"/>
      <polygon points="82.783 374.119 70.151 346.375 95.855 346.172" transform="rotate(-135.001 83.003 360.146)"/>
      <ellipse cx="79.339" cy="108.906" rx="9.175" ry="10.094"/>
      <ellipse cx="79.339" cy="276.781" rx="9.175" ry="10.094"/>
      <ellipse cx="79.339" cy="451.031" rx="9.175" ry="10.094"/>
      <polygon points="82.783 534.557 70.151 506.813 95.855 506.61" transform="rotate(-135 83.003 520.583)"/>
      <polygon points="82.037 707.845 69.287 679.78 94.787 679.78" transform="rotate(-90 82.037 693.813)"/>
      <polygon points="82.783 875.619 70.151 847.875 95.855 847.672" transform="rotate(-135.001 83.003 861.646)"/>
      <ellipse cx="78.259" cy="610.406" rx="9.175" ry="10.094"/>
      <ellipse cx="78.259" cy="777.219" rx="9.175" ry="10.094"/>
      <polygon points="19.096 619.557 6.464 591.813 32.168 591.61" transform="rotate(-135 19.316 605.583)"/>
      <polygon points="18.35 792.845 5.6 764.78 31.1 764.78" transform="rotate(-90 18.35 778.813)"/>
      <ellipse cx="14.572" cy="695.406" rx="9.175" ry="10.094"/>
      <ellipse cx="14.572" cy="862.219" rx="9.175" ry="10.094"/>
      <ellipse cx="14.572" cy="520.094" rx="9.175" ry="10.094"/>
    </g>
    <g transform="translate(255 6)">
      <g opacity=".789" transform="translate(128.453 3.188)">
        <polygon points="19.096 118.056 6.464 90.313 32.168 90.11" transform="rotate(-135 19.316 104.083)"/>
        <polygon points="19.43 292.408 6.68 264.342 32.18 264.342" transform="rotate(-90 19.43 278.375)"/>
        <polygon points="19.096 460.181 6.464 432.438 32.168 432.235" transform="rotate(-135.001 19.316 446.208)"/>
        <ellipse cx="15.652" cy="194.969" rx="9.175" ry="10.094"/>
        <ellipse cx="15.652" cy="361.781" rx="9.175" ry="10.094"/>
        <ellipse cx="15.652" cy="19.656" rx="9.175" ry="10.094"/>
        <polygon points="82.783 33.057 70.151 5.313 95.855 5.11" transform="rotate(-135 83.003 19.083)"/>
        <polygon points="83.117 207.408 70.367 179.342 95.867 179.342" transform="rotate(-90 83.117 193.375)"/>
        <polygon points="82.783 374.119 70.151 346.375 95.855 346.172" transform="rotate(-135.001 83.003 360.146)"/>
        <ellipse cx="79.339" cy="108.906" rx="9.175" ry="10.094"/>
        <ellipse cx="79.339" cy="276.781" rx="9.175" ry="10.094"/>
        <ellipse cx="79.339" cy="451.031" rx="9.175" ry="10.094"/>
        <polygon points="82.783 534.557 70.151 506.813 95.855 506.61" transform="rotate(-135 83.003 520.583)"/>
        <polygon points="82.037 707.845 69.287 679.78 94.787 679.78" transform="rotate(-90 82.037 693.813)"/>
        <polygon points="82.783 875.619 70.151 847.875 95.855 847.672" transform="rotate(-135.001 83.003 861.646)"/>
        <ellipse cx="78.259" cy="610.406" rx="9.175" ry="10.094"/>
        <ellipse cx="78.259" cy="777.219" rx="9.175" ry="10.094"/>
        <polygon points="19.096 619.557 6.464 591.813 32.168 591.61" transform="rotate(-135 19.316 605.583)"/>
        <polygon points="18.35 792.845 5.6 764.78 31.1 764.78" transform="rotate(-90 18.35 778.813)"/>
        <ellipse cx="14.572" cy="695.406" rx="9.175" ry="10.094"/>
        <ellipse cx="14.572" cy="862.219" rx="9.175" ry="10.094"/>
        <ellipse cx="14.572" cy="520.094" rx="9.175" ry="10.094"/>
      </g>
      <g opacity=".85">
        <polygon points="19.096 118.056 6.464 90.313 32.168 90.11" transform="rotate(-135 19.316 104.083)"/>
        <polygon points="19.43 292.408 6.68 264.342 32.18 264.342" transform="rotate(-90 19.43 278.375)"/>
        <polygon points="19.096 460.181 6.464 432.438 32.168 432.235" transform="rotate(-135.001 19.316 446.208)"/>
        <ellipse cx="15.652" cy="194.969" rx="9.175" ry="10.094"/>
        <ellipse cx="15.652" cy="361.781" rx="9.175" ry="10.094"/>
        <ellipse cx="15.652" cy="19.656" rx="9.175" ry="10.094"/>
        <polygon points="82.783 33.057 70.151 5.313 95.855 5.11" transform="rotate(-135 83.003 19.083)"/>
        <polygon points="83.117 207.408 70.367 179.342 95.867 179.342" transform="rotate(-90 83.117 193.375)"/>
        <polygon points="82.783 374.119 70.151 346.375 95.855 346.172" transform="rotate(-135.001 83.003 360.146)"/>
        <ellipse cx="79.339" cy="108.906" rx="9.175" ry="10.094"/>
        <ellipse cx="79.339" cy="276.781" rx="9.175" ry="10.094"/>
        <ellipse cx="79.339" cy="451.031" rx="9.175" ry="10.094"/>
        <polygon points="82.783 534.557 70.151 506.813 95.855 506.61" transform="rotate(-135 83.003 520.583)"/>
        <polygon points="82.037 707.845 69.287 679.78 94.787 679.78" transform="rotate(-90 82.037 693.813)"/>
        <polygon points="82.783 875.619 70.151 847.875 95.855 847.672" transform="rotate(-135.001 83.003 861.646)"/>
        <ellipse cx="78.259" cy="610.406" rx="9.175" ry="10.094"/>
        <ellipse cx="78.259" cy="777.219" rx="9.175" ry="10.094"/>
        <polygon points="19.096 619.557 6.464 591.813 32.168 591.61" transform="rotate(-135 19.316 605.583)"/>
        <polygon points="18.35 792.845 5.6 764.78 31.1 764.78" transform="rotate(-90 18.35 778.813)"/>
        <ellipse cx="14.572" cy="695.406" rx="9.175" ry="10.094"/>
        <ellipse cx="14.572" cy="862.219" rx="9.175" ry="10.094"/>
        <ellipse cx="14.572" cy="520.094" rx="9.175" ry="10.094"/>
      </g>
    </g>
    <g opacity=".789" transform="translate(510 9)">
      <g transform="translate(128.453 3.188)">
        <polygon points="19.096 118.056 6.464 90.313 32.168 90.11" transform="rotate(-135 19.316 104.083)"/>
        <polygon points="19.43 292.408 6.68 264.342 32.18 264.342" transform="rotate(-90 19.43 278.375)"/>
        <polygon points="19.096 460.181 6.464 432.438 32.168 432.235" transform="rotate(-135.001 19.316 446.208)"/>
        <ellipse cx="15.652" cy="194.969" rx="9.175" ry="10.094"/>
        <ellipse cx="15.652" cy="361.781" rx="9.175" ry="10.094"/>
        <ellipse cx="15.652" cy="19.656" rx="9.175" ry="10.094"/>
        <polygon points="82.783 33.057 70.151 5.313 95.855 5.11" transform="rotate(-135 83.003 19.083)"/>
        <polygon points="83.117 207.408 70.367 179.342 95.867 179.342" transform="rotate(-90 83.117 193.375)"/>
        <polygon points="82.783 374.119 70.151 346.375 95.855 346.172" transform="rotate(-135.001 83.003 360.146)"/>
        <ellipse cx="79.339" cy="108.906" rx="9.175" ry="10.094"/>
        <ellipse cx="79.339" cy="276.781" rx="9.175" ry="10.094"/>
        <ellipse cx="79.339" cy="451.031" rx="9.175" ry="10.094"/>
        <polygon points="82.783 534.557 70.151 506.813 95.855 506.61" transform="rotate(-135 83.003 520.583)"/>
        <polygon points="82.037 707.845 69.287 679.78 94.787 679.78" transform="rotate(-90 82.037 693.813)"/>
        <polygon points="82.783 875.619 70.151 847.875 95.855 847.672" transform="rotate(-135.001 83.003 861.646)"/>
        <ellipse cx="78.259" cy="610.406" rx="9.175" ry="10.094"/>
        <ellipse cx="78.259" cy="777.219" rx="9.175" ry="10.094"/>
        <polygon points="19.096 619.557 6.464 591.813 32.168 591.61" transform="rotate(-135 19.316 605.583)"/>
        <polygon points="18.35 792.845 5.6 764.78 31.1 764.78" transform="rotate(-90 18.35 778.813)"/>
        <ellipse cx="14.572" cy="695.406" rx="9.175" ry="10.094"/>
        <ellipse cx="14.572" cy="862.219" rx="9.175" ry="10.094"/>
        <ellipse cx="14.572" cy="520.094" rx="9.175" ry="10.094"/>
      </g>
      <polygon points="19.096 118.056 6.464 90.313 32.168 90.11" transform="rotate(-135 19.316 104.083)"/>
      <polygon points="19.43 292.408 6.68 264.342 32.18 264.342" transform="rotate(-90 19.43 278.375)"/>
      <polygon points="19.096 460.181 6.464 432.438 32.168 432.235" transform="rotate(-135.001 19.316 446.208)"/>
      <ellipse cx="15.652" cy="194.969" rx="9.175" ry="10.094"/>
      <ellipse cx="15.652" cy="361.781" rx="9.175" ry="10.094"/>
      <ellipse cx="15.652" cy="19.656" rx="9.175" ry="10.094"/>
      <polygon points="82.783 33.057 70.151 5.313 95.855 5.11" transform="rotate(-135 83.003 19.083)"/>
      <polygon points="83.117 207.408 70.367 179.342 95.867 179.342" transform="rotate(-90 83.117 193.375)"/>
      <polygon points="82.783 374.119 70.151 346.375 95.855 346.172" transform="rotate(-135.001 83.003 360.146)"/>
      <ellipse cx="79.339" cy="108.906" rx="9.175" ry="10.094"/>
      <ellipse cx="79.339" cy="276.781" rx="9.175" ry="10.094"/>
      <ellipse cx="79.339" cy="451.031" rx="9.175" ry="10.094"/>
      <polygon points="82.783 534.557 70.151 506.813 95.855 506.61" transform="rotate(-135 83.003 520.583)"/>
      <polygon points="82.037 707.845 69.287 679.78 94.787 679.78" transform="rotate(-90 82.037 693.813)"/>
      <polygon points="82.783 875.619 70.151 847.875 95.855 847.672" transform="rotate(-135.001 83.003 861.646)"/>
      <ellipse cx="78.259" cy="610.406" rx="9.175" ry="10.094"/>
      <ellipse cx="78.259" cy="777.219" rx="9.175" ry="10.094"/>
      <polygon points="19.096 619.557 6.464 591.813 32.168 591.61" transform="rotate(-135 19.316 605.583)"/>
      <polygon points="18.35 792.845 5.6 764.78 31.1 764.78" transform="rotate(-90 18.35 778.813)"/>
      <ellipse cx="14.572" cy="695.406" rx="9.175" ry="10.094"/>
      <ellipse cx="14.572" cy="862.219" rx="9.175" ry="10.094"/>
      <ellipse cx="14.572" cy="520.094" rx="9.175" ry="10.094"/>
    </g>
  </g>
</svg>
