<?xml version="1.0" encoding="UTF-8" standalone="no"?>
<svg
   xmlns:dc="http://purl.org/dc/elements/1.1/"
   xmlns:cc="http://web.resource.org/cc/"
   xmlns:rdf="http://www.w3.org/1999/02/22-rdf-syntax-ns#"
   xmlns:svg="http://www.w3.org/2000/svg"
   xmlns="http://www.w3.org/2000/svg"
   xmlns:sodipodi="http://sodipodi.sourceforge.net/DTD/sodipodi-0.dtd"
   xmlns:inkscape="http://www.inkscape.org/namespaces/inkscape"
   version="1.1"
   id="Layer_1"
   x="0px"
   y="0px"
   width="720px"
   height="720px"
   viewBox="0 0 720 720"
   enable-background="new 0 0 720 720"
   xml:space="preserve"
   sodipodi:version="0.32"
   inkscape:version="0.45.1"
   sodipodi:docname="loccopyseal.svg"
   sodipodi:docbase="/Users/lindberg/Projects/Wiki/seals"
   inkscape:output_extension="org.inkscape.output.svg.inkscape"
   inkscape:export-filename="/Users/lindberg/Projects/Wiki/seals/loccopyseal.png"
   inkscape:export-xdpi="90"
   inkscape:export-ydpi="90"><metadata
   id="metadata2387"><rdf:RDF><cc:Work
       rdf:about=""><dc:format>image/svg+xml</dc:format><dc:type
         rdf:resource="http://purl.org/dc/dcmitype/StillImage" /></cc:Work></rdf:RDF></metadata><defs
   id="defs2385">
	

		
	</defs><sodipodi:namedview
   inkscape:window-height="480"
   inkscape:window-width="640"
   inkscape:pageshadow="2"
   inkscape:pageopacity="0.0"
   guidetolerance="10.0"
   gridtolerance="10.0"
   objecttolerance="10.0"
   borderopacity="1.0"
   bordercolor="#666666"
   pagecolor="#ffffff"
   id="base" />
<path
   sodipodi:type="arc"
   style="opacity:1;fill:#ffffff;fill-opacity:1;fill-rule:nonzero;stroke:none;stroke-width:0.03;stroke-linecap:butt;stroke-linejoin:round;stroke-miterlimit:4;stroke-dasharray:none;stroke-opacity:1"
   id="path3158"
   sodipodi:cx="-252.38095"
   sodipodi:cy="161.90475"
   sodipodi:rx="73.333336"
   sodipodi:ry="68.571426"
   d="M -179.04762 161.90475 A 73.333336 68.571426 0 1 1  -325.71429,161.90475 A 73.333336 68.571426 0 1 1  -179.04762 161.90475 z"
   transform="matrix(3.9981817,0,0,4.2758335,1369.0649,-332.27778)" /><path
   d="M 37.802,341.099 C 37.802,347.395 37.802,349.197 37.802,350.095 L 36.898,350.999 C 36.001,350.999 36.001,350.095 36.001,349.197 C 36.001,347.396 35.104,346.498 35.104,345.6 C 33.302,345.6 27.904,345.6 20.704,345.6 L 19.8,345.6 L 19.8,361.795 L 21.6,361.795 C 28.8,361.795 31.499,361.795 34.198,361.795 C 35.102,361.795 35.102,360.897 35.102,358.198 L 36,357.294 C 36,357.294 36,357.294 36.897,357.294 L 37.801,357.294 C 36.897,359.096 36.897,360.897 36.897,367.2 C 36.897,373.496 36.897,375.298 36.897,376.195 C 36.897,376.195 36.897,377.099 36,377.099 C 35.103,377.099 35.103,376.195 35.103,376.195 L 35.103,375.298 C 35.103,372.599 35.103,371.694 34.199,371.694 C 32.404,370.797 26.999,370.797 20.703,370.797 L 14.4,370.797 C 10.797,370.797 5.399,370.797 3.603,370.797 C 2.699,370.797 1.802,371.694 1.802,374.4 L 1.802,374.4 C 1.802,375.298 1.802,375.298 0.898,375.298 L 0,375.298 C 0,374.4 0,372.599 0.897,365.399 C 0.897,359.097 0.897,358.199 0.897,356.398 C 0.897,356.398 0.897,356.398 1.801,356.398 C 1.801,356.398 2.698,356.398 2.698,357.295 L 2.698,357.295 C 2.698,359.097 2.698,360.898 3.602,360.898 C 5.397,360.898 11.7,361.796 16.201,361.796 L 17.098,361.796 L 18.002,344.697 L 15.297,344.697 C 8.097,344.697 5.398,344.697 3.602,344.697 C 3.602,345.601 2.698,345.601 2.698,349.197 L 2.698,349.197 C 2.698,350.095 2.698,350.095 1.801,350.095 C 0.897,350.095 0.897,350.095 0.897,349.197 C 0.897,348.3 0.897,345.6 0.897,340.196 C 1.801,333.9 1.801,332.098 0.897,330.297 C 1.801,330.297 1.801,330.297 2.699,330.297 L 3.603,330.297 L 3.603,331.201 C 3.603,333.9 3.603,334.798 4.501,335.695 C 6.302,335.695 11.701,335.695 17.099,335.695 L 23.401,336.599 C 26.1,336.599 32.403,336.599 35.102,336.599 C 36,335.694 36,334.797 36,332.995 L 36,332.098 L 36.897,331.201 C 37.801,331.201 37.801,332.098 38.699,332.098 C 37.802,333.899 37.802,335.694 37.802,341.099 z M 41.398,414.895 C 40.501,414.895 40.501,414.895 40.501,414.895 L 39.597,413.998 C 39.597,411.299 39.597,410.401 37.802,410.401 C 36.898,410.401 32.404,410.401 26.999,411.299 L 11.701,413.998 C 9.002,413.998 7.201,414.895 7.201,414.895 C 7.201,414.895 7.201,416.697 8.098,420.3 C 8.098,424.8 10.797,427.5 16.202,427.5 C 17.099,427.5 17.099,427.5 17.099,428.398 L 17.099,429.295 C 14.4,429.295 10.797,429.295 8.098,429.295 C 7.201,429.295 7.201,429.295 6.303,428.398 C 6.303,423.897 5.399,419.397 5.399,414.896 L 3.604,405.901 C 2.7,400.496 1.803,395.098 1.803,391.501 C 0.899,390.597 1.803,390.597 2.7,390.597 C 4.502,389.7 11.701,388.802 11.701,388.802 C 11.701,388.802 11.701,389.7 11.701,390.597 C 11.701,390.597 11.701,391.501 10.797,391.501 C 10.797,391.501 10.797,391.501 9.9,391.501 C 5.399,392.399 4.502,395.098 5.399,399.599 C 5.399,401.401 5.399,404.1 6.303,404.997 L 27.903,402.298 C 33.301,401.401 36.001,400.497 36.898,400.497 C 37.802,400.497 37.802,398.702 37.802,396.002 L 37.802,396.002 C 36.898,395.098 37.802,395.098 37.802,395.098 C 38.699,395.098 38.699,395.098 39.597,395.098 C 39.597,396.899 39.597,398.701 40.501,404.997 C 41.398,411.3 41.398,413.101 42.302,413.999 C 42.302,414.895 41.398,414.895 41.398,414.895 z M 41.398,306.895 L 40.501,313.197 C 39.597,317.698 39.597,320.397 39.597,321.295 C 38.7,321.295 38.7,322.199 37.802,322.199 C 37.802,321.295 36.898,321.295 36.898,320.398 C 37.802,317.699 37.802,316.801 36.898,315.897 C 36.001,315.897 30.602,315 26.101,314.096 L 17.1,312.301 C 12.6,311.397 8.099,310.499 7.201,310.499 C 5.399,310.499 5.399,311.397 4.502,315 C 4.502,315 4.502,315.897 3.604,315.897 C 2.7,315 2.7,315 2.7,315 C 3.604,313.198 3.604,312.301 4.502,306.896 L 5.399,300.6 C 7.2,292.495 7.2,288 8.098,284.397 C 8.098,283.499 9.002,283.499 9.9,283.499 C 12.599,283.499 18.004,285.294 18.004,285.294 C 18.004,285.294 18.004,285.294 18.004,286.198 C 18.004,287.096 17.1,287.096 17.1,287.096 L 16.203,287.096 C 12.6,286.198 9.901,287.096 9.003,292.494 C 8.099,296.994 8.099,300.598 8.099,301.495 C 9.003,301.495 13.504,302.399 18.902,303.297 L 22.499,304.194 L 22.499,302.4 C 23.403,297.9 23.403,296.098 22.499,295.2 C 21.602,294.296 19.8,293.398 18.004,292.494 C 18.004,292.494 18.004,292.494 18.004,291.596 C 18.004,291.596 18.004,290.699 18.902,290.699 C 19.799,290.699 21.601,291.596 25.198,292.494 C 28.801,292.494 30.603,293.398 32.405,293.398 C 32.405,293.398 32.405,293.398 32.405,294.295 C 32.405,294.295 32.405,295.199 31.501,295.199 C 28.802,294.295 27.904,295.199 27.001,296.096 C 26.103,296.993 25.199,297.898 24.302,303.296 L 24.302,304.193 L 27.001,305.097 C 35.105,305.995 37.804,306.892 37.804,305.995 C 38.701,305.995 39.599,302.398 40.503,300.597 C 41.4,295.199 40.503,289.794 34.2,287.095 L 34.2,286.197 C 34.2,285.293 35.104,285.293 35.104,285.293 C 37.803,285.293 42.304,287.999 44.099,289.794 C 44.099,289.794 44.099,290.698 44.099,292.493 C 44.098,295.2 43.2,298.797 41.398,306.895 z M 62.999,489.6 L 62.101,489.6 L 62.101,488.696 C 61.204,485.997 60.3,485.099 59.402,485.099 C 57.601,485.996 52.202,487.798 46.804,489.6 L 41.399,492.299 C 37.802,493.196 31.5,495.896 30.602,496.799 C 29.698,496.799 29.698,498.595 31.499,501.294 C 31.499,501.294 31.499,502.197 30.602,502.197 C 29.698,503.095 29.698,502.197 29.698,502.197 C 28.8,499.498 27.903,496.799 26.101,493.196 L 24.3,488.695 C 22.498,483.297 20.703,478.797 18.004,473.398 C 18.004,472.494 18.004,472.494 18.902,471.595 C 21.601,470.699 25.198,468.896 27,467.999 L 27,468.895 C 27.904,469.793 27.904,469.793 27,470.698 C 22.499,473.397 22.499,476.096 23.403,479.692 C 24.301,483.296 26.102,486.893 27,487.796 C 27.904,487.796 31.5,485.994 36.899,484.193 L 40.503,482.397 L 40.503,480.595 C 38.701,476.095 37.804,475.197 36.002,474.292 C 35.105,473.396 33.303,474.292 31.501,474.292 C 31.501,474.292 30.604,474.292 30.604,473.396 L 30.604,472.492 C 31.501,472.492 33.303,471.594 36.9,470.697 C 41.401,468.894 43.203,467.093 44.1,467.093 C 44.1,467.093 44.1,467.997 45.004,467.997 C 45.004,468.893 45.004,468.893 44.1,468.893 C 42.305,470.696 41.401,471.592 40.503,472.491 C 40.503,473.395 40.503,475.196 42.304,480.595 L 43.202,481.493 L 45.901,480.595 C 52.203,477.896 54.902,476.991 55.8,476.095 C 56.704,476.095 56.704,474.292 54.903,471.593 L 54.903,470.7 C 54.903,470.7 54.903,469.796 55.8,469.796 L 56.704,469.796 C 57.602,471.597 57.602,473.4 60.301,479.694 C 62.102,484.196 63,486.895 63.904,488.696 C 63.902,488.696 63.902,489.6 62.999,489.6 z M 44.098,242.095 L 39.597,240.3 C 34.199,237.601 26.999,234.895 26.101,234.895 C 25.197,234.895 24.3,234.895 23.402,238.498 C 22.498,238.498 22.498,238.498 21.601,238.498 L 21.601,237.6 C 21.601,237.6 22.498,234.894 25.198,229.496 C 27,224.995 27.904,222.296 28.801,220.495 C 28.801,220.495 28.801,220.495 29.699,220.495 C 30.603,220.495 30.603,220.495 30.603,221.399 C 28.801,224.098 28.801,224.996 29.699,224.996 C 30.603,225.9 33.302,227.695 40.502,230.401 L 47.702,233.1 C 54.902,236.697 59.403,233.998 62.102,227.695 C 64.801,221.399 62.102,216.001 53.998,212.398 L 52.203,211.5 C 45.003,208.801 41.4,207 39.598,207 C 36.899,207 36.001,207 34.2,210.597 L 34.2,211.501 C 34.2,211.501 34.2,211.501 33.303,211.501 C 32.406,211.501 32.406,210.597 32.406,210.597 C 33.303,209.7 34.201,207 36.003,204.301 C 37.805,199.8 37.805,197.999 37.805,197.101 C 38.702,197.101 38.702,197.101 39.6,197.101 C 39.6,197.101 40.504,197.999 39.6,197.999 C 38.703,201.602 38.703,202.499 40.504,203.397 C 41.401,204.301 46.806,206.096 52.205,208.801 L 54.904,209.699 C 66.605,215.097 67.502,224.099 63.905,232.197 C 59.401,242.095 53.099,245.698 44.098,242.095 z M 31.499,449.997 C 28.8,450.895 26.101,449.1 25.197,446.4 C 24.3,442.797 26.101,440.098 28.8,439.2 C 32.404,438.296 35.103,440.098 36,443.694 C 36.897,446.4 35.103,449.099 31.499,449.997 z M 31.499,269.997 C 27.902,269.099 26.999,266.4 26.999,262.797 C 27.903,260.098 31.499,258.296 34.199,259.2 C 36.898,260.097 38.7,263.694 37.803,266.4 C 36.897,269.099 34.198,270.895 31.499,269.997 z M 72,542.7 C 62.101,547.2 51.298,545.399 45.001,533.698 C 38.699,521.997 41.398,512.995 51.297,507.596 C 60.298,503.096 71.999,504.897 78.301,516.598 C 83.701,527.395 81.899,536.397 72,542.7 z M 97.197,173.698 C 96.3,175.499 95.402,175.499 93.6,176.397 C 92.702,176.397 74.699,178.198 56.702,181.795 C 56.702,181.795 57.6,182.699 61.203,185.398 C 71.102,191.694 74.699,194.399 77.398,195.297 C 79.2,196.194 80.097,195.297 81.899,192.598 C 81.899,192.598 81.899,191.694 82.796,191.694 C 82.796,191.694 82.796,190.797 83.7,191.694 L 83.7,192.598 C 83.7,193.495 81.899,195.297 80.097,198.894 C 77.398,202.497 76.5,203.395 76.5,204.299 C 76.5,205.196 75.602,205.196 75.602,204.299 C 74.698,204.299 74.698,203.395 74.698,203.395 C 76.5,200.696 76.5,199.798 74.698,197.997 C 73.801,196.195 59.4,186.296 53.996,183.597 L 53.098,182.7 C 53.098,182.7 52.201,182.7 51.297,182.7 C 49.502,182.7 48.598,183.597 46.802,185.399 L 46.802,185.399 C 46.802,186.296 45.898,186.296 45.898,185.399 C 45,185.399 45,185.399 45,184.495 C 45.898,184.495 46.802,182.7 48.597,179.097 C 49.501,178.199 52.2,174.596 52.2,173.699 L 53.097,173.699 C 53.995,172.801 69.299,171 86.398,168.301 C 86.398,168.301 81,164.698 79.198,163.8 L 78.3,162.896 C 75.601,161.101 71.1,158.401 68.395,157.498 C 66.6,156.601 65.696,156.601 62.997,161.101 L 62.099,161.101 C 61.202,161.101 61.202,160.197 61.202,160.197 C 62.099,159.3 62.997,157.498 65.697,153.901 C 67.498,150.297 68.396,148.496 69.3,147.598 C 69.3,147.598 69.3,147.598 70.197,147.598 C 71.101,147.598 71.101,148.496 70.197,148.496 C 69.3,151.202 68.396,152.099 70.197,153.901 C 71.999,155.696 78.301,160.197 90.002,168.301 L 90.9,168.301 C 95.4,171 98.1,172.801 98.1,172.801 C 98.1,172.801 97.197,172.8 97.197,173.698 z M 59.401,513.899 C 51.297,518.4 43.2,526.498 47.7,533.698 C 50.399,538.198 54.9,540.897 63.902,535.499 C 73.801,530.095 79.2,521.997 75.603,515.694 C 72.897,511.2 67.499,510.295 59.401,513.899 z M 360,655.2 C 197.099,655.2 64.8,522.895 64.8,360 C 64.8,197.099 197.099,64.8 360,64.8 C 522.901,64.8 655.2,197.099 655.2,360 C 655.2,522.895 522.901,655.2 360,655.2 z M 360,72 C 200.702,72 72,200.696 72,360 C 72,519.297 200.702,648 360,648 C 519.298,648 648,519.297 648,360 C 648,200.696 519.298,72 360,72 z M 360,641.698 C 204.299,641.698 78.302,515.694 78.302,360 C 78.302,204.299 204.299,78.296 360,78.296 C 515.701,78.296 641.697,204.299 641.697,360 C 641.697,515.694 515.701,641.698 360,641.698 z M 112.501,152.995 C 108.897,157.496 108,158.4 107.103,160.195 C 106.199,160.195 106.199,160.195 105.301,159.298 C 105.301,159.298 105.301,159.298 105.301,158.4 L 105.301,158.4 C 108,155.694 108,154.797 107.103,153.9 C 106.199,152.996 101.698,149.399 98.101,145.796 L 92.703,142.199 C 90.902,140.398 85.503,135.897 83.702,134.999 C 82.798,134.095 81.901,134.999 80.099,136.8 L 80.099,137.698 L 79.2,137.698 C 78.302,136.8 78.302,136.8 78.302,136.8 C 78.302,135.896 81.001,134.095 84.598,128.696 C 89.098,124.195 90.002,123.298 90.002,121.496 C 90.9,121.496 90.9,121.496 91.797,122.4 L 91.797,123.298 C 90.002,125.099 90.002,125.997 90.002,126.895 C 90.9,128.697 96.298,133.197 99.901,135.896 L 104.402,139.499 C 108.896,143.096 112.5,145.795 113.397,146.699 C 114.301,147.596 115.199,146.699 117,144.897 L 117.898,144 C 117.898,144 117.898,144 118.802,144 C 118.802,144.897 118.802,144.897 118.802,144.897 C 117.899,145.795 117.001,147.597 112.501,152.995 z M 88.202,564.299 C 85.503,566.094 81.9,566.094 80.098,563.395 C 78.303,560.696 79.201,557.997 81.002,556.196 C 83.701,553.497 87.298,554.4 89.1,557.099 C 90.901,559.798 90.003,562.498 88.202,564.299 z M 131.401,589.497 C 131.401,590.4 130.497,590.4 130.497,589.497 C 127.798,587.694 126.9,586.798 125.997,586.798 C 125.099,587.694 120.599,592.196 117.001,594.896 L 112.501,599.396 C 108,603 104.403,606.596 103.499,608.398 C 103.499,609.295 103.499,610.199 106.198,612.002 C 106.198,612.002 106.198,612.898 105.301,612.898 C 105.301,613.796 104.404,613.796 104.404,613.796 C 103.5,612.001 102.602,611.097 98.101,606.596 C 93.601,601.198 92.703,599.396 90.901,598.498 C 90.901,598.498 90.901,598.498 91.798,597.601 L 92.702,597.601 L 93.6,598.498 C 95.401,600.3 96.299,601.197 97.197,600.3 C 98.101,600.3 101.698,596.696 106.198,592.196 L 111.596,588.598 C 117.001,583.2 118.803,581.399 119.7,580.494 C 119.7,579.596 117.899,576.896 115.2,573.294 C 110.699,568.799 106.198,569.697 101.698,572.397 C 101.698,572.397 100.8,572.397 100.8,571.499 C 100.8,571.499 100.8,570.596 100.8,569.698 C 102.602,568.8 108,565.197 109.802,565.197 C 110.699,565.197 111.597,565.197 112.501,566.999 C 113.398,567.896 117.001,572.397 122.4,578.7 L 126.901,583.2 C 129.6,586.798 131.401,587.694 132.299,588.598 C 132.299,588.598 132.299,589.497 131.401,589.497 z M 143.103,351.896 L 98.101,351.896 C 94.498,351.896 94.498,356.397 98.101,356.397 L 143.103,356.397 C 145.802,356.397 145.802,351.896 143.103,351.896 z M 143.103,363.597 L 98.101,363.597 C 94.498,363.597 94.498,368.098 98.101,368.098 L 143.103,368.098 C 145.802,368.098 145.802,363.597 143.103,363.597 z M 143.103,374.4 L 98.101,374.4 C 95.402,374.4 95.402,378.895 98.101,378.895 L 143.103,378.895 C 145.802,378.895 145.802,374.4 143.103,374.4 z M 144.897,341.099 L 98.999,341.099 C 95.402,341.099 95.402,345.6 98.999,345.6 L 144.898,345.6 C 147.603,345.6 147.603,341.099 144.897,341.099 z M 144,386.095 L 98.999,386.095 C 95.402,386.095 95.402,390.595 98.999,390.595 L 144,390.595 C 146.699,390.595 146.699,386.095 144,386.095 z M 145.802,329.398 L 99.902,329.398 C 97.196,329.398 97.196,333.899 99.902,333.899 L 145.801,333.899 C 148.501,333.899 148.501,329.398 145.802,329.398 z M 145.802,396.897 L 99.902,396.897 C 97.196,396.897 97.196,401.398 99.902,401.398 L 145.801,401.398 C 148.501,401.398 148.501,396.897 145.802,396.897 z M 147.603,408.599 L 100.8,408.599 C 98.101,408.599 98.101,413.099 100.8,413.099 L 147.603,413.099 C 151.2,413.099 151.2,408.599 147.603,408.599 z M 147.603,318.595 L 101.698,318.595 C 98.101,318.595 98.101,323.096 101.698,323.096 L 147.603,323.096 C 150.302,323.096 150.302,318.595 147.603,318.595 z M 138.602,125.099 C 134.101,128.696 133.204,130.497 132.3,131.395 L 131.402,131.395 C 130.498,130.497 130.498,130.497 130.498,130.497 L 131.402,129.6 C 133.204,127.798 134.101,126.894 133.204,125.997 C 132.3,125.099 129.601,121.496 125.998,116.995 L 115.2,106.198 C 113.398,104.397 112.501,103.499 112.501,103.499 C 112.501,103.499 110.699,104.397 108,107.096 C 104.403,109.795 103.499,113.398 107.103,117.899 C 107.103,118.796 107.103,118.796 106.199,119.694 L 105.302,119.694 C 104.405,117.899 102.603,115.2 99.904,112.494 C 99.904,111.596 99.904,111.596 99.904,110.699 C 104.405,108 107.104,104.397 110.701,101.698 L 117.003,95.396 C 120.6,91.799 125.101,87.298 127.8,85.497 C 127.8,84.6 128.704,84.6 129.602,85.497 C 130.499,86.401 135,91.799 135,91.799 C 135,91.799 135,92.697 134.102,92.697 C 134.102,93.601 134.102,93.601 133.205,92.697 C 133.205,92.697 133.205,92.697 132.301,91.799 C 129.602,89.1 125.999,89.998 122.402,92.697 C 122.402,93.601 119.703,96.3 118.805,97.197 L 134.102,112.495 C 137.699,116.995 139.5,118.797 140.398,119.695 C 141.302,119.695 142.199,119.695 144.001,117.9 L 144.898,116.996 L 145.802,116.996 C 146.699,117.9 146.699,117.9 146.699,118.798 C 144.897,118.797 144,120.599 138.602,125.099 z M 150.302,306.895 L 103.499,306.895 C 99.902,306.895 99.902,311.396 103.499,311.396 L 150.302,311.396 C 153.001,311.396 153.001,306.895 150.302,306.895 z M 151.2,419.396 L 103.499,419.396 C 99.902,419.396 99.902,423.896 103.499,423.896 L 151.2,423.896 C 153.899,423.896 153.899,419.396 151.2,419.396 z M 154.797,431.096 L 106.198,431.096 C 102.601,431.096 102.601,435.596 106.198,435.596 L 154.797,435.596 C 158.4,435.596 158.4,431.096 154.797,431.096 z M 153.899,296.098 L 106.198,296.098 C 103.499,296.098 103.499,300.599 106.198,300.599 L 153.899,300.599 C 157.502,300.599 157.502,296.098 153.899,296.098 z M 144,284.397 L 108.897,284.397 C 106.198,284.397 106.198,288.897 108.897,288.897 L 144,288.897 C 146.699,288.897 146.699,284.397 144,284.397 z M 160.202,441.899 L 108.898,441.899 C 106.199,441.899 106.199,446.4 108.898,446.4 L 160.202,446.4 C 162.901,446.4 162.901,441.899 160.202,441.899 z M 139.499,273.6 L 112.501,273.6 C 109.802,273.6 109.802,278.095 112.501,278.095 L 139.499,278.095 C 143.103,278.095 143.103,273.6 139.499,273.6 z M 166.498,453.6 L 113.399,453.6 C 109.802,453.6 109.802,458.094 113.399,458.094 L 166.498,458.094 C 169.197,458.094 169.197,453.6 166.498,453.6 z M 139.499,261.899 L 117.001,261.899 C 113.398,261.899 113.398,266.399 117.001,266.399 L 139.499,266.399 C 142.198,266.4 142.198,261.899 139.499,261.899 z M 173.698,464.397 L 117.9,464.397 C 114.303,464.397 114.303,468.897 117.9,468.897 L 173.698,468.897 C 176.403,468.897 176.403,464.397 173.698,464.397 z M 141.301,251.096 L 121.503,251.096 C 118.804,251.096 118.804,255.596 121.503,255.596 L 141.301,255.596 C 144,255.597 144,251.096 141.301,251.096 z M 182.699,476.098 L 122.4,476.098 C 119.701,476.098 119.701,480.598 122.4,480.598 L 182.699,480.598 C 185.398,480.598 185.398,476.098 182.699,476.098 z M 140.397,239.396 L 126.901,239.396 C 124.202,239.396 124.202,243.896 126.901,243.896 L 140.397,243.896 C 143.103,243.896 143.103,239.396 140.397,239.396 z M 167.401,620.995 C 167.401,620.995 167.401,620.995 166.497,620.995 C 165.6,620.099 164.702,620.099 162.9,620.099 C 162.002,620.099 160.201,620.099 152.097,624.599 L 135.902,632.697 L 131.401,634.499 C 129.6,635.396 127.798,635.396 125.997,633.602 C 128.702,629.101 131.401,620.1 134.101,612.899 C 136.8,606.597 138.602,600.301 138.602,599.397 C 138.602,597.602 137.698,597.602 135.903,595.8 L 135.903,594.897 C 136.8,593.999 136.8,593.999 137.698,593.999 C 137.698,594.897 140.397,597.603 144,600.302 C 149.398,604.802 151.2,605.7 152.098,606.598 C 152.098,606.598 152.098,606.598 152.098,607.501 C 151.201,607.501 151.201,608.399 150.303,607.501 C 147.604,605.7 146.7,605.7 146.7,606.598 C 145.803,607.501 144.898,610.201 142.199,615.599 L 151.201,621.902 C 154.798,620.101 157.503,618.298 158.401,617.402 C 159.299,615.599 159.299,614.703 156.6,612.9 C 155.702,612.004 155.702,612.004 156.6,611.099 L 157.504,611.099 C 158.401,612.003 160.203,613.798 162.902,615.599 C 165.601,618.298 167.402,619.203 168.3,620.101 C 168.299,620.098 168.299,620.098 167.401,620.995 z M 192.599,486.895 L 128.703,486.895 C 125.1,486.895 125.1,491.395 128.703,491.395 L 192.599,491.395 C 196.202,491.395 196.202,486.895 192.599,486.895 z M 137.698,228.599 L 133.203,228.599 C 129.6,228.599 129.6,233.099 133.203,233.099 L 137.698,233.099 C 140.397,233.099 140.397,228.599 137.698,228.599 z M 205.203,498.595 L 134.998,498.595 C 131.401,498.595 131.401,503.096 134.998,503.096 L 205.203,503.096 C 207.902,503.096 207.902,498.595 205.203,498.595 z M 139.499,216.897 L 138.602,216.897 C 135.903,216.897 135.903,221.398 138.602,221.398 L 139.499,221.398 C 142.198,221.398 142.198,216.897 139.499,216.897 z M 141.301,617.399 C 140.397,620.995 138.602,624.598 137.698,629.099 C 142.198,626.4 144.898,625.496 148.501,623.694 L 141.301,617.399 z M 184.501,89.099 C 181.802,90.894 179.103,92.696 171.902,97.197 L 166.497,100.8 C 162.9,103.499 161.099,105.295 160.201,106.198 C 160.201,106.198 159.297,106.198 159.297,105.294 L 159.297,104.397 C 162.002,102.595 162.9,101.698 162.002,100.8 C 162.002,99.896 159.297,95.396 156.598,91.799 L 151.2,84.599 C 148.501,80.995 145.802,76.495 144.897,75.597 C 144,74.7 143.102,75.597 140.397,77.399 C 140.397,77.399 139.499,77.399 139.499,76.495 C 138.602,76.495 138.602,75.597 138.602,75.597 C 140.397,74.7 142.199,74.7 145.802,71.097 L 151.2,67.5 C 158.4,63 162.003,60.3 164.702,57.601 C 165.6,57.601 165.6,57.601 166.497,58.498 C 168.299,60.3 170.998,65.698 170.998,65.698 C 170.998,65.698 170.998,65.698 170.1,66.595 C 169.196,66.595 169.196,66.595 169.196,66.595 C 168.299,66.595 168.299,65.698 168.299,64.8 C 166.497,62.999 163.798,61.197 159.298,64.8 C 155.701,67.499 153.002,69.295 152.098,70.198 C 153.002,71.096 155.701,74.699 158.4,79.2 L 160.202,81.899 L 161.099,80.995 C 165.6,78.296 166.497,77.398 167.401,75.597 C 167.401,74.7 166.497,72.898 165.6,71.097 C 165.6,71.097 165.6,71.097 166.497,70.199 L 167.401,70.199 C 167.401,71.097 169.196,72.898 170.998,75.597 C 172.799,78.296 174.601,80.098 175.498,80.995 C 175.498,80.995 175.498,81.899 174.601,81.899 C 174.601,82.796 173.697,82.796 173.697,81.899 C 171.902,80.097 170.998,79.2 169.196,79.2 C 168.299,79.2 167.401,80.097 162.9,82.797 L 162.002,83.694 L 162.9,85.496 C 168.298,91.798 169.196,94.497 170.1,94.497 C 170.998,94.497 173.697,93.6 176.403,91.798 C 180,89.099 183.596,84.598 180.897,78.296 C 180.897,78.296 181.801,78.296 181.801,77.399 C 182.698,77.399 182.698,77.399 182.698,78.296 C 184.5,79.2 186.301,84.599 186.301,87.298 C 186.302,87.298 185.398,88.195 184.501,89.099 z M 220.501,509.399 L 142.198,509.399 C 138.601,509.399 138.601,513.899 142.198,513.899 L 220.501,513.899 C 223.2,513.899 223.2,509.399 220.501,509.399 z M 146.699,206.095 L 145.802,206.095 C 143.103,206.095 143.103,210.595 145.802,210.595 L 146.699,210.595 C 149.398,210.595 149.398,206.095 146.699,206.095 z M 206.101,257.398 C 182.7,242.094 167.402,228.598 149.399,213.294 C 147.604,216 145.802,220.494 145.802,224.995 C 145.802,252.897 179.103,271.798 206.101,280.8 C 203.401,275.396 203.401,264.599 206.101,257.398 z M 239.401,521.099 L 149.398,521.099 C 146.699,521.099 146.699,525.6 149.398,525.6 L 239.401,525.6 C 242.999,525.6 242.999,521.099 239.401,521.099 z M 148.501,260.995 C 148.501,262.797 147.603,265.496 147.603,267.298 C 147.603,291.597 171.902,305.997 205.203,305.997 C 206.1,297.899 207.902,290.699 210.601,286.198 L 148.501,260.995 z M 200.702,643.499 C 198.901,641.698 197.099,641.698 196.202,642.596 C 195.298,642.596 192.599,647.097 189.9,650.7 L 185.399,658.798 C 182.7,662.401 180.001,666.896 180.001,667.799 C 180.001,668.696 180.001,669.601 182.7,671.396 C 183.597,671.396 183.597,672.3 182.7,672.3 C 182.7,673.197 181.803,673.197 181.803,673.197 C 180.899,672.3 180.001,671.395 175.5,668.696 L 170.102,665.099 C 162.902,660.598 159.299,657.899 155.702,656.098 C 154.798,655.2 154.798,655.2 155.702,654.295 C 157.504,651.596 161.1,647.096 161.1,647.096 C 161.1,647.096 161.1,647.096 162.004,648 L 162.004,648.896 C 162.004,648.896 162.004,649.794 161.1,649.794 C 159.299,652.493 159.299,656.097 163.799,658.796 C 168.3,661.495 170.999,662.399 171.903,663.296 C 171.903,662.399 174.602,657.898 178.199,653.398 L 180,650.7 L 179.103,650.7 C 174.602,648.001 172.8,647.096 170.999,647.096 C 170.101,647.096 169.197,648.897 168.3,649.795 C 167.402,650.699 167.402,650.699 166.498,649.795 C 166.498,649.795 166.498,649.795 166.498,648.897 C 166.498,648.001 168.3,647.096 170.101,643.499 C 171.903,640.8 172.8,638.999 173.698,637.197 C 173.698,637.197 173.698,637.197 174.602,638.094 C 174.602,638.094 175.499,638.094 174.602,638.998 C 173.698,640.799 173.698,642.595 173.698,643.498 C 174.602,644.396 175.499,645.294 180,648.896 L 180.897,648.896 L 181.801,647.095 C 186.301,639.895 188.097,638.093 188.097,637.196 C 188.097,636.299 185.398,634.497 183.596,632.695 C 179.102,629.996 173.697,628.195 168.299,632.695 L 168.299,632.695 C 167.401,632.695 167.401,631.798 167.401,631.798 C 168.299,629.996 172.799,625.496 174.601,625.496 C 175.498,625.496 176.403,625.496 177.3,626.399 C 179.999,627.296 182.698,629.996 189.899,634.497 L 195.297,638.094 C 198.9,640.799 201.599,641.698 202.497,641.698 C 202.497,642.595 202.497,642.595 202.497,643.499 C 201.6,643.499 201.6,643.499 200.702,643.499 z M 265.502,531.896 L 158.4,531.896 C 155.701,531.896 155.701,536.397 158.4,536.397 L 265.503,536.397 C 268.202,536.397 268.202,531.896 265.502,531.896 z M 496.8,403.2 C 485.997,432 473.399,456.299 455.402,476.098 C 458.101,479.694 459.903,486.895 459.903,500.397 C 459.903,504.897 458.101,514.797 458.101,514.797 C 458.101,514.797 450.901,506.699 447.298,504 C 448.202,512.994 445.503,521.099 445.503,521.099 C 445.503,521.099 441.002,514.797 435.604,512.098 C 436.502,517.496 434.7,527.395 434.7,527.395 C 427.5,518.4 418.498,512.098 413.998,508.495 C 400.502,513.899 385.198,516.599 369.9,516.599 C 349.204,516.599 332.098,512.099 315.903,503.097 C 301.503,507.597 292.502,518.401 289.802,522.896 C 289.802,522.896 286.198,516.599 288,505.796 C 282.602,508.495 278.101,514.798 277.203,516.599 C 276.299,512.099 275.401,505.796 275.401,499.499 C 270.901,502.198 266.4,507.597 264.598,510.296 C 264.598,506.7 263.7,499.499 263.7,495.897 C 263.7,477.9 271.798,471.597 276.299,468.001 C 272.702,464.397 269.997,459.897 267.298,456.3 C 258.302,452.696 252,446.4 252,446.4 L 253.802,440.995 C 234.901,444.599 224.098,422.999 224.098,422.999 L 225.9,421.197 C 208.8,417.6 204.3,392.397 204.3,392.397 L 206.999,391.499 C 199.799,387.896 194.4,378.895 195.298,361.795 L 197.997,361.795 C 193.502,357.294 190.803,350.094 190.803,339.297 C 177.301,337.495 167.401,328.494 162.003,318.594 C 158.4,331.199 156.599,347.394 156.599,364.493 C 156.599,480.597 256.501,539.999 365.399,539.999 C 405.002,539.999 442.797,532.798 479.701,517.495 L 512.098,408.597 L 496.8,403.2 z M 274.498,365.398 C 274.498,325.795 288.898,306.894 288.898,294.295 C 288.898,287.999 286.199,282.594 276.3,273.599 C 254.7,251.999 216.001,228.598 170.101,176.396 C 163.799,179.095 161.1,184.494 161.1,194.399 C 161.1,211.498 172.801,230.399 207.903,254.698 C 209.698,252.896 210.602,251.999 211.5,250.197 L 212.398,251.095 C 212.398,251.095 210.603,253.794 210.603,260.994 C 210.603,284.396 230.401,293.397 247.5,297.898 L 246.603,300.597 L 212.398,287.095 C 207,309.599 219.604,326.698 248.404,321.293 C 249.301,327.595 246.602,334.795 242.101,339.296 C 227.701,341.097 216.898,340.193 197.997,337.494 C 194.4,359.998 207.902,366.294 234.003,361.793 L 234.901,362.697 L 203.401,368.095 C 203.401,387.893 216,394.196 241.196,382.495 L 242.1,384.297 L 214.198,396 C 219.603,417.6 232.201,421.197 251.102,404.995 L 251.999,406.797 L 233.098,423.896 C 243.901,440.098 260.097,438.295 269.098,420.299 L 269.996,422.094 L 260.097,443.693 C 270.9,452.695 285.3,454.497 297.001,449.098 C 287.103,432.897 274.498,405.899 274.498,365.398 z M 291.603,543.596 L 168.299,543.596 C 165.6,543.596 165.6,548.098 168.299,548.098 L 291.603,548.098 C 294.302,548.098 294.302,543.596 291.603,543.596 z M 206.101,309.6 C 189.9,310.497 179.103,308.696 168.3,306.894 C 166.498,328.494 202.498,349.196 243.903,324.897 C 219.603,327.597 207.902,323.096 206.101,309.6 z M 290.699,554.4 L 180,554.4 C 176.403,554.4 176.403,558.895 180,558.895 L 290.699,558.895 C 293.398,558.895 293.398,554.4 290.699,554.4 z M 215.103,72 C 212.397,73.795 207.903,75.597 205.204,76.495 C 200.703,78.296 197.998,80.098 197.1,80.995 C 197.1,80.995 196.203,80.995 196.203,80.098 L 196.203,79.2 L 197.1,79.2 C 198.902,77.398 199.799,76.494 199.799,75.596 C 199.799,74.699 197.1,69.294 194.401,64.799 L 191.702,59.395 C 189.901,54.894 186.304,49.496 186.304,48.598 C 184.503,47.694 183.598,48.598 181.804,49.495 L 180.9,49.495 L 180,49.495 C 180,48.598 180,48.598 180,47.693 C 182.699,46.796 185.398,45.898 189.001,44.096 C 191.7,42.294 196.201,39.595 198.9,37.794 C 209.697,32.396 220.5,33.293 225.899,44.096 C 231.298,54.895 226.797,65.698 215.103,72 z M 542.699,161.099 L 186.302,161.099 C 183.596,161.099 183.596,165.6 186.302,165.6 L 542.699,165.6 C 545.398,165.6 545.398,161.099 542.699,161.099 z M 306.003,171.896 L 190.803,171.896 C 188.097,171.896 188.097,176.397 190.803,176.397 L 306.003,176.397 C 308.702,176.397 308.702,171.896 306.003,171.896 z M 297.899,566.094 L 192.599,566.094 C 189.9,566.094 189.9,570.595 192.599,570.595 L 297.9,570.595 C 301.502,570.595 301.502,566.094 297.899,566.094 z M 197.997,41.398 C 196.202,42.295 194.4,43.2 194.4,44.097 C 194.4,44.994 197.099,50.399 199.798,54.894 L 201.6,59.395 C 204.299,63.895 207.902,70.198 207.902,71.096 C 209.697,72 211.499,71.096 214.198,70.198 C 219.603,67.499 222.302,59.395 217.802,49.496 C 212.397,39.597 205.203,37.795 197.997,41.398 z M 529.197,149.398 L 198.901,149.398 C 196.202,149.398 196.202,153.899 198.901,153.899 L 529.197,153.899 C 532.8,153.899 532.8,149.398 529.197,149.398 z M 266.4,183.597 L 200.702,183.597 C 197.099,183.597 197.099,188.098 200.702,188.098 L 266.4,188.098 C 269.099,188.098 269.099,183.597 266.4,183.597 z M 231.298,666.895 C 231.298,667.798 230.4,667.798 230.4,666.895 C 229.503,666.895 229.503,666.895 229.503,666.895 C 232.202,660.598 228.599,656.995 225.002,654.295 C 221.399,653.399 217.802,653.399 216.001,656.098 C 215.104,659.694 216.001,661.496 218.7,664.196 L 221.399,668.696 C 225.9,673.197 225.9,676.8 224.098,681.295 C 221.399,686.7 214.199,688.495 206.999,685.796 C 202.498,683.097 199.799,681.295 198.901,681.295 L 198.901,680.398 C 200.702,676.8 201.6,674.095 202.498,672.3 C 202.498,672.3 202.498,672.3 203.402,672.3 C 204.3,673.197 204.3,673.197 204.3,674.095 C 202.498,678.596 204.3,682.199 207.903,684.001 C 211.5,685.796 215.103,684.897 216.898,682.198 C 217.802,679.499 216.898,676.8 214.199,674.094 C 214.199,673.197 211.5,670.497 210.602,669.6 C 207.903,665.996 206.101,661.496 207.903,656.995 C 210.602,651.597 218.7,649.796 225.9,653.399 C 231.298,655.2 234.004,657.899 234.901,657.899 L 234.901,658.797 C 233.099,662.4 232.202,665.099 231.298,666.895 z M 310.498,576.897 L 206.999,576.897 C 204.3,576.897 204.3,581.399 206.999,581.399 L 310.498,581.399 C 313.197,581.399 313.197,576.897 310.498,576.897 z M 242.999,194.4 L 210.602,194.4 C 207.903,194.4 207.903,198.895 210.602,198.895 L 242.999,198.895 C 245.698,198.895 245.698,194.4 242.999,194.4 z M 514.797,138.595 L 213.301,138.595 C 210.602,138.595 210.602,143.096 213.301,143.096 L 514.797,143.096 C 517.502,143.096 517.502,138.595 514.797,138.595 z M 225.001,206.095 L 221.398,206.095 C 218.699,206.095 218.699,210.595 221.398,210.595 L 225.001,210.595 C 228.599,210.595 228.599,206.095 225.001,206.095 z M 330.302,588.598 L 224.098,588.598 C 221.399,588.598 221.399,593.099 224.098,593.099 L 330.303,593.099 C 333.899,593.099 333.899,588.598 330.302,588.598 z M 497.698,126.895 L 230.4,126.895 C 227.701,126.895 227.701,131.396 230.4,131.396 L 497.698,131.396 C 501.301,131.396 501.301,126.895 497.698,126.895 z M 490.498,204.299 C 452.703,186.296 411.298,178.198 369.9,178.198 C 318.602,178.198 269.998,192.598 230.4,220.494 C 240.299,230.399 256.501,244.799 267.298,252.897 C 290.699,221.398 322.198,202.497 365.399,202.497 C 431.103,202.497 463.5,247.498 475.201,301.496 L 490.498,301.496 L 490.498,204.299 z M 341.997,599.395 L 243.902,599.395 C 240.299,599.395 240.299,603.896 243.902,603.896 L 341.997,603.896 C 344.702,603.896 344.702,599.395 341.997,599.395 z M 251.103,43.2 C 248.404,44.097 244.8,42.296 243.903,39.596 C 242.999,36.897 244.8,33.294 247.5,32.396 C 250.199,31.498 253.803,33.293 254.7,35.999 C 255.597,38.699 253.802,42.296 251.103,43.2 z M 477.899,116.098 L 251.103,116.098 C 248.404,116.098 248.404,120.599 251.103,120.599 L 477.9,120.599 C 480.599,120.599 480.599,116.098 477.899,116.098 z M 253.802,691.2 C 250.198,690.296 249.301,686.7 250.198,684.001 C 251.102,681.295 253.802,679.499 256.501,680.397 C 260.098,681.294 261.001,684.001 260.098,687.596 C 259.2,690.295 256.501,692.098 253.802,691.2 z M 451.798,611.096 L 269.099,611.096 C 266.4,611.096 266.4,615.596 269.099,615.596 L 451.798,615.596 C 454.498,615.596 454.498,611.096 451.798,611.096 z M 303.298,485.997 C 302.4,485.997 300.599,486.895 299.701,487.799 L 299.701,486.896 C 299.701,484.197 297.9,479.695 292.501,479.695 C 291.603,479.695 288.897,479.695 288,480.599 C 288,480.599 288,480.599 288,479.695 C 288,476.996 286.198,472.496 280.8,472.496 C 275.402,472.496 268.202,478.799 269.099,499.5 C 269.099,499.5 278.1,492.301 282.601,488.697 C 280.799,492.301 279.902,497.699 280.799,506.701 C 280.799,506.701 286.197,500.398 294.301,495.897 C 292.5,499.5 291.602,505.796 292.5,512.996 C 297.898,505.797 311.4,498.597 311.4,494.096 C 311.401,489.6 309.6,485.997 303.298,485.997 z M 285.301,45.899 C 279.903,47.694 276.3,47.694 275.402,47.694 C 275.402,47.694 275.402,47.694 274.498,46.797 C 274.498,44.098 273.601,40.495 272.703,38.699 C 272.703,37.795 272.703,37.795 273.601,37.795 L 274.498,37.795 C 276.3,44.097 280.8,44.995 285.301,44.097 C 288.898,43.2 291.603,40.494 290.699,37.795 C 290.699,34.198 288,33.294 284.397,32.397 L 279.902,31.499 C 273.6,30.595 270.901,27.896 269.997,23.395 C 268.202,17.099 272.702,10.796 280.8,8.995 C 285.301,8.098 288.898,7.2 288.898,8.098 C 289.802,8.098 289.802,8.098 289.802,8.098 C 290.699,11.695 291.603,15.298 292.501,16.196 L 291.603,17.1 C 290.699,17.1 289.802,17.1 289.802,16.196 C 288,11.695 284.397,9.9 280.8,10.798 C 276.3,11.695 274.498,14.401 275.402,17.998 C 276.3,20.697 278.101,21.601 281.698,22.498 C 282.602,22.498 287.103,23.396 287.103,23.396 C 292.501,25.197 296.098,26.999 297.002,31.5 C 298.797,37.795 293.398,44.098 285.301,45.899 z M 451.798,104.397 L 277.203,104.397 C 273.6,104.397 273.6,108.897 277.203,108.897 L 451.798,108.897 C 454.498,108.897 454.498,104.397 451.798,104.397 z M 297.001,692.098 L 295.2,699.297 C 294.302,705.6 293.398,709.196 293.398,710.998 C 293.398,711.895 294.302,712.799 297.001,712.799 L 297.899,712.799 C 298.796,713.697 298.796,713.697 298.796,714.595 C 297.899,714.595 297.899,714.595 297.899,715.498 C 296.097,714.595 294.302,713.697 288,712.799 C 282.602,711.896 279.902,710.998 278.999,710.998 C 278.101,710.998 278.101,710.094 278.101,710.094 C 278.101,709.197 278.999,709.197 278.999,709.197 L 279.903,709.197 C 282.602,710.094 283.5,710.094 284.398,709.197 C 284.398,707.395 286.199,702.895 287.104,697.497 L 288.001,692.995 C 288.898,687.597 289.803,684.897 289.803,683.097 C 289.803,682.199 288.899,681.295 285.302,681.295 L 284.398,680.398 C 284.398,680.398 284.398,680.398 284.398,679.5 C 284.398,679.5 284.398,678.597 285.302,678.597 C 293.4,679.5 297.901,677.7 298.798,677.7 C 299.702,677.7 300.6,677.7 300.6,678.597 C 300.599,679.499 297.899,687.596 297.001,692.098 z M 315.902,251.096 L 285.3,251.096 C 282.601,251.096 282.601,255.596 285.3,255.596 L 315.902,255.596 C 319.499,255.597 319.499,251.096 315.902,251.096 z M 302.4,455.395 C 297.002,455.395 287.103,459.896 283.499,467.096 C 287.103,468 289.802,470.7 290.699,473.399 C 297.899,473.399 301.502,476.995 302.4,480.598 C 310.498,479.694 314.999,485.099 315.902,489.6 C 319.499,487.798 324.897,484.196 325.801,480.598 C 316.8,472.495 307.798,463.499 302.4,455.395 z M 313.197,261.899 L 287.103,261.899 C 284.397,261.899 284.397,266.399 287.103,266.399 L 313.197,266.399 C 315.902,266.4 315.902,261.899 313.197,261.899 z M 432,337.496 C 423.902,338.4 413.997,338.4 405.001,338.4 C 377.099,338.4 351.902,334.797 337.502,329.399 L 414.9,329.399 C 390.601,307.799 386.998,269.1 386.998,252.898 C 378.9,248.398 367.2,244.8 351.902,244.8 C 346.497,244.8 341.997,247.499 339.298,252 C 325.802,252 320.403,255.597 320.403,264.599 C 320.403,267.298 321.3,271.799 323.102,274.498 C 324.897,270.895 328.5,269.1 333.001,269.1 C 339.297,269.1 345.6,271.799 349.203,275.396 C 349.203,275.396 350.1,278.999 350.1,280.8 C 350.1,306.895 330.302,329.399 291.602,329.399 C 288.896,338.4 285.3,352.8 285.3,372.599 C 285.3,440.995 333.899,482.4 360.897,498.596 C 412.201,470.7 432.897,422.096 432.897,400.495 C 432.897,381.6 399.596,373.496 301.502,372.599 L 301.502,369.9 L 436.501,369.9 C 435.603,358.198 434.699,346.498 432,337.496 z M 314.999,273.6 L 296.098,273.6 C 293.399,273.6 293.399,278.095 296.098,278.095 L 314.999,278.095 C 317.698,278.095 317.698,273.6 314.999,273.6 z M 333.001,239.396 L 297.001,239.396 C 293.398,239.396 293.398,243.896 297.001,243.896 L 333.001,243.896 C 335.701,243.896 335.701,239.396 333.001,239.396 z M 306.003,318.595 L 298.797,318.595 C 295.2,318.595 295.2,323.096 298.797,323.096 L 306.003,323.096 C 308.702,323.096 308.702,318.595 306.003,318.595 z M 327.597,306.895 L 301.503,306.895 C 298.797,306.895 298.797,311.396 301.503,311.396 L 327.597,311.396 C 331.2,311.396 331.2,306.895 327.597,306.895 z M 302.4,544.495 C 302.4,544.495 300.599,548.995 300.599,552.599 C 300.599,554.401 305.099,559.799 310.498,562.498 C 312.3,556.196 315.903,547.2 315.903,547.2 C 311.401,546.295 306.003,545.399 302.4,544.495 z M 338.4,284.397 L 303.298,284.397 C 300.599,284.397 300.599,288.897 303.298,288.897 L 338.4,288.897 C 341.099,288.897 341.099,284.397 338.4,284.397 z M 336.599,296.098 L 305.099,296.098 C 301.502,296.098 301.502,300.599 305.099,300.599 L 336.599,300.599 C 339.298,300.599 339.298,296.098 336.599,296.098 z M 343.798,10.797 C 342.901,10.797 342.901,9.9 342.901,9.9 C 342.901,9.9 342.901,8.996 342.901,8.098 C 341.997,4.495 339.298,2.7 334.803,3.597 C 333.001,3.597 330.302,3.597 328.501,4.495 L 331.2,26.095 C 332.097,31.499 332.097,34.199 333.001,35.096 C 333.001,36 333.899,36 336.598,36 L 337.502,36 C 337.502,36 338.399,36 338.399,36.897 C 338.399,36.897 338.399,37.795 337.502,37.795 C 336.598,37.795 334.803,37.795 328.501,38.699 C 322.198,39.596 320.403,39.596 318.602,39.596 C 318.602,39.596 317.698,39.596 317.698,38.699 L 318.602,37.795 L 318.602,37.795 C 321.301,37.795 322.199,36.897 323.103,36 C 323.103,34.198 322.199,30.595 322.199,24.299 L 320.404,9.899 C 320.404,7.2 319.5,5.398 319.5,5.398 C 319.5,5.398 317.699,5.398 314.102,5.398 C 309.602,6.295 306.902,8.097 306.902,13.496 C 306.902,14.4 306.004,14.4 306.004,14.4 C 305.1,14.4 304.203,14.4 304.203,14.4 C 305.1,11.694 305.1,8.098 305.1,5.399 C 304.203,4.495 305.1,4.495 306.004,3.597 C 310.499,3.597 315,3.597 319.5,2.7 L 328.502,1.796 C 333.9,0.898 339.299,0.898 342.902,0.001 C 343.799,0.001 343.799,0.001 343.799,1.796 C 344.703,2.7 344.703,9.9 344.703,9.9 C 344.703,9.9 344.702,10.797 343.798,10.797 z M 413.099,621.899 L 306.901,621.899 C 304.202,621.899 304.202,626.4 306.901,626.4 L 413.099,626.4 C 415.798,626.4 415.798,621.899 413.099,621.899 z M 419.401,228.599 L 310.498,228.599 C 307.799,228.599 307.799,233.099 310.498,233.099 L 419.402,233.099 C 422.101,233.099 422.101,228.599 419.401,228.599 z M 413.099,93.6 L 315.902,93.6 C 313.196,93.6 313.196,98.095 315.902,98.095 L 413.099,98.095 C 415.798,98.095 415.798,93.6 413.099,93.6 z M 318.602,548.098 C 316.8,554.4 315.903,563.395 315.903,566.094 C 315.903,568.799 328.502,577.795 336.599,579.596 C 337.503,571.498 340.202,557.099 341.099,549.899 C 333.899,549.899 325.802,548.995 318.602,548.098 z M 339.298,699.297 C 344.702,701.996 347.402,704.695 347.402,709.196 C 346.498,717.294 338.401,720 331.201,719.095 C 325.803,719.095 319.5,716.396 320.404,710.093 C 320.404,705.599 324.001,703.797 328.502,701.098 C 324.898,699.296 322.199,696.597 322.199,692.097 C 323.103,684.896 331.201,682.197 337.503,682.197 C 341.998,683.095 348.3,684.896 347.402,690.295 C 347.401,695.694 342.901,697.497 339.298,699.297 z M 332.098,485.997 L 325.802,495.896 C 336.599,500.397 347.402,504 360,505.795 C 350.101,499.499 340.202,492.299 332.098,485.997 z M 331.2,702.895 C 328.501,703.798 326.699,706.498 326.699,709.197 C 326.699,713.698 328.501,717.295 333.001,717.295 C 336.598,718.198 339.297,715.499 340.201,711.897 C 340.202,707.395 335.701,705.6 331.2,702.895 z M 335.701,684 C 332.098,684 329.399,685.795 329.399,689.398 C 329.399,692.994 333.002,695.693 336.599,697.496 C 339.298,696.598 341.099,692.994 341.099,691.199 C 341.997,687.596 339.298,684.897 335.701,684 z M 399.597,216.897 L 335.701,216.897 C 332.098,216.897 332.098,221.398 335.701,221.398 L 399.597,221.398 C 402.302,221.398 402.302,216.897 399.597,216.897 z M 377.099,550.797 C 373.502,550.797 369.001,551.693 365.398,551.693 C 358.198,551.693 351.902,550.797 344.702,550.797 C 342.901,563.395 341.099,581.399 341.099,584.994 C 341.099,590.399 351.902,594.894 360.897,594.894 C 369.899,594.894 380.702,590.399 380.702,584.994 C 380.702,581.399 379.798,564.299 377.099,550.797 z M 390.602,38.699 C 389.698,37.795 386.101,37.795 381.601,37.795 C 374.401,37.795 373.503,37.795 371.702,37.795 L 371.702,36.897 C 371.702,36 371.702,36 372.6,36 C 375.299,36 376.203,35.096 376.203,34.198 C 376.203,33.294 375.299,30.595 374.401,25.197 L 362.7,24.3 C 360.898,28.8 360.001,31.5 360.001,33.295 C 360.001,34.199 360.898,35.097 364.502,35.097 C 365.399,35.097 365.399,36.001 365.399,36.898 C 365.399,36.898 364.502,36.898 364.502,37.796 C 363.604,36.898 360.898,36.898 357.302,36.898 C 353.699,36.898 351.904,36.898 351,36.898 C 351,36.898 350.102,36.898 350.102,36.001 L 351,35.097 C 352.801,35.097 353.699,35.097 354.603,34.199 C 355.5,33.295 356.398,32.398 360.899,23.396 L 369.001,7.2 L 370.796,2.699 C 371.701,0.897 373.502,0 375.298,0 C 376.202,5.398 379.798,14.4 381.6,21.6 C 384.299,28.8 386.1,34.198 386.998,35.096 C 387.902,36 388.8,36 390.602,36 C 391.499,36 391.499,36.897 391.499,36.897 C 391.499,37.795 391.499,37.795 390.602,38.699 z M 391.499,487.798 C 380.702,494.998 371.701,501.294 362.699,505.795 C 376.201,505.795 387.902,504.897 398.699,501.294 L 391.499,487.798 z M 369.001,10.797 C 367.2,16.195 365.398,18.895 363.603,22.498 L 373.502,22.498 C 371.701,18.895 370.797,15.298 369.001,10.797 z M 390.602,686.7 L 388.8,690.296 C 382.498,701.1 377.099,716.398 377.099,720.001 C 374.4,720.001 371.701,719.097 371.701,718.198 C 371.701,717.295 371.701,717.295 371.701,717.295 C 372.599,716.398 373.503,714.596 375.298,710.999 L 386.101,689.399 C 386.101,689.399 379.799,689.399 371.701,689.399 C 367.201,690.295 366.303,691.2 367.201,693.899 L 367.201,694.797 C 367.201,695.693 366.303,695.693 366.303,695.693 C 365.399,695.693 365.399,695.693 365.399,695.693 C 365.399,695.693 364.502,690.295 364.502,685.795 C 363.604,684 364.502,683.096 365.399,683.096 C 369.002,683.096 374.4,683.096 386.999,682.198 C 388.8,682.198 391.499,682.198 392.404,681.295 C 392.404,681.295 393.301,681.295 393.301,682.198 C 393.301,683.096 391.499,684.897 390.602,686.7 z M 477.899,599.395 L 380.702,599.395 C 378.003,599.395 378.003,603.896 380.702,603.896 L 477.899,603.896 C 480.599,603.896 480.599,599.395 477.899,599.395 z M 404.098,548.995 C 396.898,549.899 388.8,550.798 381.6,550.798 C 382.497,557.1 385.197,572.398 386.1,579.597 C 394.198,577.796 406.803,570.596 406.803,566.095 C 406.803,562.498 405.001,554.4 404.098,548.995 z M 432,239.396 L 393.301,239.396 C 389.698,239.396 389.698,243.896 393.301,243.896 L 432,243.896 C 435.603,243.896 435.603,239.396 432,239.396 z M 497.698,588.598 L 394.198,588.598 C 390.601,588.598 390.601,593.099 394.198,593.099 L 497.698,593.099 C 501.301,593.099 501.301,588.598 497.698,588.598 z M 422.101,457.197 C 414.901,467.096 405.9,476.098 396.898,483.298 C 399.597,486.896 404.098,491.396 408.599,492.3 C 410.4,488.696 413.997,485.1 420.3,485.1 C 422.999,480.599 424.8,477.9 432.001,477.9 C 433.803,474.296 438.303,471.597 443.702,471.597 C 440.098,464.397 432,457.197 422.101,457.197 z M 441.001,251.096 L 399.596,251.096 C 396.897,251.096 396.897,255.596 399.596,255.596 L 441.001,255.596 C 443.701,255.597 443.701,251.096 441.001,251.096 z M 442.797,261.899 L 399.597,261.899 C 396.898,261.899 396.898,266.399 399.597,266.399 L 442.797,266.399 C 445.502,266.4 445.502,261.899 442.797,261.899 z M 437.398,18.895 C 437.398,18.895 437.398,18.895 436.501,18.895 L 435.603,17.998 C 435.603,17.998 436.501,17.1 436.501,16.196 C 437.398,12.599 434.699,9.9 429.301,8.996 C 428.397,8.996 425.698,8.996 423.903,8.996 L 420.3,29.699 C 419.402,36.001 419.402,38.7 419.402,39.598 C 419.402,40.496 420.3,40.496 422.999,41.4 L 423.903,41.4 L 423.903,42.297 C 423.903,43.201 423.903,43.201 423.903,43.201 C 422.101,43.201 420.3,42.297 413.998,41.399 C 407.702,40.495 405.9,40.495 404.099,40.495 C 404.099,39.597 404.099,39.597 404.099,38.7 C 404.099,38.7 404.099,37.796 405.003,37.796 L 405.003,38.7 C 407.702,38.7 408.6,38.7 409.504,37.796 C 410.401,36.001 411.299,31.5 412.203,26.095 L 414.902,11.695 C 414.902,8.996 414.902,7.201 414.902,7.201 C 414.902,7.201 413.1,6.297 409.504,5.399 C 405.003,5.399 401.4,7.201 400.503,11.695 C 399.599,12.599 399.599,12.599 398.701,12.599 L 397.804,11.695 C 398.701,8.996 399.599,6.297 400.503,2.7 C 400.503,1.796 401.4,1.796 401.4,1.796 C 406.805,2.7 411.299,3.597 415.8,4.495 L 424.801,6.296 C 429.302,7.2 435.604,8.098 438.303,8.098 C 439.201,8.995 440.098,8.995 439.201,10.797 C 439.2,11.694 437.398,18.895 437.398,18.895 z M 432,273.6 L 401.398,273.6 C 397.801,273.6 397.801,278.095 401.398,278.095 L 432,278.095 C 434.699,278.095 434.699,273.6 432,273.6 z M 425.698,284.397 L 404.098,284.397 C 400.501,284.397 400.501,288.897 404.098,288.897 L 425.698,288.897 C 428.397,288.897 428.397,284.397 425.698,284.397 z M 425.698,296.098 L 407.701,296.098 C 404.098,296.098 404.098,300.599 407.701,300.599 L 425.698,300.599 C 428.397,300.599 428.397,296.098 425.698,296.098 z M 420.299,546.295 C 416.702,547.199 412.201,548.098 408.598,548.098 C 409.502,551.694 410.399,558.895 411.297,562.497 C 417.599,559.798 422.1,554.399 422.1,552.598 C 422.101,549.899 420.299,546.295 420.299,546.295 z M 426.602,714.595 C 416.703,716.397 411.298,707.395 409.503,699.297 C 408.599,690.295 411.298,678.595 422.101,676.799 C 432,674.998 437.399,684 438.303,692.098 C 440.098,701.099 437.398,711.896 426.602,714.595 z M 427.499,306.895 L 413.099,306.895 C 410.4,306.895 410.4,311.396 413.099,311.396 L 427.499,311.396 C 430.198,311.396 430.198,306.895 427.499,306.895 z M 442.797,476.995 C 437.399,476.995 435.603,481.497 435.603,484.196 C 435.603,485.099 435.603,485.099 435.603,485.099 C 433.802,484.196 432,484.196 431.103,484.196 C 425.698,484.196 423.903,488.696 423.903,491.395 L 423.903,492.299 C 422.101,491.395 421.204,490.497 419.402,490.497 C 413.998,490.497 411.298,495.895 412.202,499.498 C 414.901,504.896 425.698,510.295 431.103,517.496 C 432,510.295 430.199,504 429.301,500.396 C 434.699,503.095 442.797,511.199 442.797,511.199 C 442.797,502.197 441.9,496.799 441.002,493.196 C 446.4,495.896 454.498,504 454.498,504 C 455.401,483.297 447.298,476.995 442.797,476.995 z M 514.797,576.897 L 414.901,576.897 C 411.298,576.897 411.298,581.399 414.901,581.399 L 514.797,581.399 C 517.502,581.399 517.502,576.897 514.797,576.897 z M 421.203,679.499 C 414.901,680.397 416.702,692.099 417.6,695.694 C 418.497,699.298 421.203,712.799 427.499,711.896 C 432.897,710.999 431.103,698.4 430.198,693.899 C 430.198,690.295 426.602,678.595 421.203,679.499 z M 431.103,318.595 L 422.101,318.595 C 419.402,318.595 419.402,323.096 422.101,323.096 L 431.103,323.096 C 434.699,323.096 434.699,318.595 431.103,318.595 z M 529.197,566.094 L 428.397,566.094 C 424.8,566.094 424.8,570.595 428.397,570.595 L 529.197,570.595 C 532.8,570.595 532.8,566.094 529.197,566.094 z M 477.899,339.298 C 474.302,335.694 470.699,327.597 471.596,321.295 C 500.396,325.796 518.399,308.697 511.2,286.199 L 499.499,290.7 L 499.499,309.6 L 468,309.6 C 465.301,291.597 460.8,278.998 453.6,265.496 C 453.6,265.496 448.202,270.894 445.502,273.6 C 437.398,281.698 434.699,285.294 434.699,292.495 C 434.699,304.196 449.099,324.898 449.099,364.495 C 449.099,404.098 437.398,431.097 427.499,449.099 C 439.2,454.497 451.798,452.696 462.602,443.694 L 451.799,422.095 L 453.601,420.3 C 458.999,430.199 466.199,434.7 470.7,434.7 C 476.098,425.698 479.701,414.895 479.701,414.895 L 470.7,406.797 L 471.597,404.995 L 481.503,411.298 L 489.601,391.499 L 480.6,386.095 L 481.504,384.3 C 504.899,395.097 520.203,387.897 520.203,368.098 L 487.8,362.7 L 487.8,361.796 C 514.799,366.296 527.403,360.001 524.704,337.497 C 504.897,340.195 492.299,341.099 477.899,339.298 z M 542.699,554.4 L 434.699,554.4 C 432,554.4 432,558.895 434.699,558.895 L 542.699,558.895 C 545.398,558.895 545.398,554.4 542.699,554.4 z M 554.4,543.596 L 441.001,543.596 C 438.302,543.596 438.302,548.098 441.001,548.098 L 554.4,548.098 C 557.1,548.098 557.1,543.596 554.4,543.596 z M 480.599,31.499 C 480.599,31.499 479.701,31.499 478.804,31.499 L 478.804,30.595 C 478.804,29.698 478.804,29.698 478.804,28.8 C 479.701,26.095 479.701,23.396 474.303,21.6 C 469.803,19.798 466.199,18.894 466.199,19.798 C 465.302,19.798 463.5,25.196 462.602,29.697 L 461.698,33.294 L 462.602,33.294 C 467.103,35.096 468.898,35.096 469.802,34.198 C 471.597,34.198 472.501,32.397 472.501,30.595 L 473.398,30.595 C 474.302,30.595 474.302,30.595 474.302,31.499 C 474.302,32.397 473.398,34.198 472.501,37.795 C 471.597,40.494 470.699,43.2 470.699,44.097 C 470.699,44.097 469.802,44.994 469.802,44.097 C 468.898,44.097 468.898,44.097 468.898,43.2 C 469.802,41.398 468.898,39.596 468.898,38.699 C 468.001,37.795 467.103,36.897 461.698,35.096 L 460.8,35.096 L 459.903,37.795 C 457.197,44.995 456.3,47.694 457.197,48.598 C 457.197,49.495 459.903,50.399 462.602,51.297 C 467.103,53.098 473.399,53.098 476.098,47.693 L 477.002,47.693 C 477.9,47.693 477.9,48.597 477.9,48.597 C 477.002,50.398 474.303,55.797 472.502,56.695 C 471.598,56.695 471.598,56.695 469.803,56.695 C 467.104,55.797 463.5,53.996 456.301,51.297 L 450.005,49.495 C 445.505,48.598 442.799,47.693 441.901,47.693 C 441.003,47.693 441.003,46.796 441.003,46.796 C 441.901,45.899 441.901,45.899 442.798,45.899 C 445.504,46.796 446.401,46.796 447.299,45.899 C 448.203,44.995 449.1,40.494 450.902,36 L 453.601,26.999 C 455.402,22.498 456.3,17.998 456.3,17.1 C 456.3,16.196 456.3,15.299 452.703,14.401 C 452.703,14.401 451.799,13.497 452.703,13.497 C 452.703,12.6 452.703,12.6 452.703,12.6 C 454.498,12.6 456.3,13.497 460.801,15.299 L 466.199,17.1 C 475.201,19.799 479.701,20.697 482.401,21.601 C 483.299,22.498 484.203,22.498 483.299,24.3 C 482.4,26.095 480.599,31.499 480.599,31.499 z M 542.699,171.896 L 444.598,171.896 C 441.899,171.896 441.899,176.397 444.598,176.397 L 542.699,176.397 C 545.398,176.397 545.398,171.896 542.699,171.896 z M 466.198,691.2 C 463.499,692.098 459.902,690.296 458.998,687.596 C 458.1,684.897 459.902,681.294 463.498,680.397 C 466.197,679.499 469.801,681.294 470.698,684.001 C 471.597,686.7 469.802,690.295 466.198,691.2 z M 564.299,531.896 L 474.302,531.896 C 471.596,531.896 471.596,536.397 474.302,536.397 L 564.299,536.397 C 566.998,536.397 566.998,531.896 564.299,531.896 z M 517.502,309.6 C 513.899,323.096 506.699,328.495 476.097,324.897 C 522.002,349.196 557.099,326.699 554.4,306.894 C 544.501,308.696 533.698,310.498 517.502,309.6 z M 531.902,183.597 L 481.502,183.597 C 477.899,183.597 477.899,188.098 481.502,188.098 L 531.902,188.098 C 534.602,188.098 534.602,183.597 531.902,183.597 z M 520.202,681.294 L 515.701,684 C 506.7,687.596 503.103,689.398 500.397,691.199 C 499.499,692.097 498.602,691.199 497.698,690.295 C 496.8,687.596 494.999,682.197 494.999,682.197 C 494.999,682.197 494.999,682.197 495.903,682.197 C 496.8,681.294 496.8,682.197 497.698,682.197 L 497.698,683.095 C 499.499,686.699 501.301,687.595 506.699,685.794 C 510.302,683.999 513.899,682.196 513.899,681.293 C 513.899,680.396 511.2,675.895 509.398,671.394 L 508.501,668.695 L 506.699,668.695 C 503.102,671.394 501.301,672.299 500.397,673.196 C 500.397,674.998 500.397,676.799 501.301,677.697 C 501.301,678.594 501.301,678.594 500.397,678.594 C 500.397,679.497 499.499,679.497 499.499,678.594 C 499.499,677.697 498.602,675.895 496.8,673.196 C 495.903,669.599 494.101,667.798 493.203,666.894 C 493.203,666.894 493.203,665.996 494.1,665.996 C 494.998,665.996 494.998,665.099 494.998,665.996 C 496.799,667.798 497.697,668.695 498.601,669.6 C 500.396,669.6 501.3,669.6 505.801,666.895 L 507.602,666.895 L 505.801,664.196 C 503.102,656.995 501.3,654.296 500.396,654.296 C 500.396,653.4 496.799,654.296 494.998,656.099 C 490.497,657.9 485.997,661.497 486.9,668.697 L 486.9,668.697 C 485.996,668.697 485.098,668.697 485.098,668.697 C 484.201,666.896 483.297,661.498 484.201,658.799 C 484.201,657.901 484.201,657.901 485.996,656.996 C 488.701,656.1 491.4,654.297 499.498,651.598 L 504.896,648.002 C 509.397,646.199 512.096,645.296 513,644.398 C 513,644.398 513,644.398 513.898,645.295 C 513.898,646.198 513.898,646.198 513,646.198 C 510.301,648.001 509.397,648.897 509.397,649.796 C 509.397,650.7 512.096,655.2 513.898,659.694 L 517.501,667.798 C 519.296,671.395 522.001,675.896 522.899,676.799 C 522.899,677.697 523.796,677.697 527.399,676.799 C 527.399,675.896 528.297,676.799 528.297,676.799 C 528.297,677.697 528.297,677.697 528.297,677.697 C 526.498,678.595 525.6,679.499 520.202,681.294 z M 518.4,47.694 L 517.503,47.694 C 516.599,46.797 516.599,46.797 516.599,45.899 C 517.503,41.398 515.701,37.795 512.098,36 C 508.501,34.198 504.898,35.096 504,37.795 C 503.102,40.494 504,43.2 506.699,46.796 C 506.699,46.796 509.398,50.399 510.302,50.399 C 513.001,53.996 514.797,58.497 513.001,62.998 C 510.302,68.396 502.198,70.198 494.1,66.595 C 488.702,64.8 485.996,62.998 485.996,62.095 C 485.098,62.095 485.098,62.095 485.996,61.197 C 486.9,57.6 488.701,54.895 488.701,53.099 C 489.599,53.099 489.599,52.195 490.496,53.099 L 491.4,53.099 C 488.701,59.395 491.4,63.896 495.901,65.698 C 499.498,66.595 503.101,66.595 503.999,63.896 C 505.801,60.299 503.999,58.498 502.197,55.798 L 498.6,52.195 C 494.997,46.797 494.099,43.2 495.901,39.596 C 498.6,33.294 506.698,31.498 513.898,34.198 C 518.398,36.897 521.098,38.699 521.098,38.699 C 521.098,39.596 521.098,39.596 521.098,39.596 C 519.298,43.2 518.4,45.899 518.4,47.694 z M 573.301,521.099 L 492.3,521.099 C 489.601,521.099 489.601,525.6 492.3,525.6 L 573.301,525.6 C 576,525.6 576,521.099 573.301,521.099 z M 581.398,509.399 L 496.8,509.399 C 494.101,509.399 494.101,513.899 496.8,513.899 L 581.399,513.899 C 584.098,513.899 584.098,509.399 581.398,509.399 z M 588.599,498.595 L 500.397,498.595 C 497.698,498.595 497.698,503.096 500.397,503.096 L 588.599,503.096 C 591.298,503.096 591.298,498.595 588.599,498.595 z M 552.599,176.397 C 532.8,198.895 515.701,214.198 499.499,228.599 L 499.499,286.199 C 507.603,281.699 513.899,271.799 513.899,260.996 C 513.899,253.796 512.097,250.199 512.097,250.199 L 513.001,249.295 C 513.899,250.199 514.796,252.001 515.7,253.796 C 550.802,229.497 561.599,211.5 561.599,194.4 C 561.6,184.495 558.9,179.096 552.599,176.397 z M 594.9,486.895 L 504,486.895 C 501.301,486.895 501.301,491.395 504,491.395 L 594.9,491.395 C 597.6,491.395 597.6,486.895 594.9,486.895 z M 600.299,476.098 L 507.603,476.098 C 504,476.098 504,480.598 507.603,480.598 L 600.299,480.598 C 603.902,480.598 603.902,476.098 600.299,476.098 z M 520.202,194.4 L 507.603,194.4 C 504.897,194.4 504.897,198.895 507.603,198.895 L 520.202,198.895 C 522.901,198.895 522.901,194.4 520.202,194.4 z M 509.398,206.095 L 507.603,206.095 C 504.897,206.095 504.897,210.595 507.603,210.595 L 509.398,210.595 C 512.098,210.595 512.098,206.095 509.398,206.095 z M 605.697,464.397 L 510.302,464.397 C 507.603,464.397 507.603,468.897 510.302,468.897 L 605.697,468.897 C 609.301,468.897 609.301,464.397 605.697,464.397 z M 610.198,453.6 L 513.899,453.6 C 511.2,453.6 511.2,458.094 513.899,458.094 L 610.198,458.094 C 613.802,458.094 613.802,453.6 610.198,453.6 z M 573.301,260.995 L 513.002,285.294 C 515.701,290.699 517.503,302.399 517.503,305.997 C 550.803,305.997 574.199,291.597 574.199,267.298 C 574.198,265.496 574.198,262.797 573.301,260.995 z M 614.699,441.899 L 517.502,441.899 C 514.796,441.899 514.796,446.4 517.502,446.4 L 614.699,446.4 C 617.398,446.4 617.398,441.899 614.699,441.899 z M 572.396,213.294 C 554.4,228.599 540,241.197 517.502,257.398 C 520.201,264.598 520.201,273.6 518.399,279.896 C 548.097,270.895 575.999,252.897 575.999,224.995 C 576,220.495 575.103,216 572.396,213.294 z M 624.599,396.897 L 521.099,396.897 C 517.502,396.897 517.502,401.398 521.099,401.398 L 624.599,401.398 C 628.201,401.398 628.201,396.897 624.599,396.897 z M 617.398,431.096 L 521.099,431.096 C 517.502,431.096 517.502,435.596 521.099,435.596 L 617.398,435.596 C 621.002,435.596 621.002,431.096 617.398,431.096 z M 621.002,419.396 L 523.798,419.396 C 521.099,419.396 521.099,423.896 523.798,423.896 L 621.002,423.896 C 623.701,423.896 623.701,419.396 621.002,419.396 z M 626.4,386.095 L 525.6,386.095 C 522.901,386.095 522.901,390.595 525.6,390.595 L 626.4,390.595 C 629.1,390.595 629.1,386.095 626.4,386.095 z M 554.4,663.297 C 547.2,667.798 543.596,668.695 543.596,668.695 C 542.699,667.798 540.897,664.195 538.198,660.597 L 538.198,659.693 C 538.198,659.693 538.198,659.693 538.198,658.797 C 539.102,658.797 540,658.797 540,659.693 C 542.699,664.195 547.2,665.098 553.502,661.496 C 559.799,656.994 561.6,648.896 555.298,640.799 C 549.9,632.695 541.802,629.099 533.698,633.6 C 528.3,638.094 528.3,643.498 530.999,648.897 L 530.101,648.897 C 529.197,649.795 529.197,649.795 528.3,648.897 C 527.402,647.096 526.498,643.499 524.703,640.799 L 524.703,639.896 C 525.601,638.094 530.101,634.498 533.699,631.798 C 547.201,622.797 557.101,625.496 562.498,633.6 C 568.8,643.499 566.998,654.295 554.4,663.297 z M 622.803,408.599 L 527.402,408.599 C 524.703,408.599 524.703,413.099 527.402,413.099 L 622.803,413.099 C 626.4,413.099 626.4,408.599 622.803,408.599 z M 627.298,374.4 L 529.197,374.4 C 525.6,374.4 525.6,378.895 529.197,378.895 L 627.298,378.895 C 629.997,378.895 629.997,374.4 627.298,374.4 z M 628.201,363.597 L 530.1,363.597 C 527.401,363.597 527.401,368.098 530.1,368.098 L 628.201,368.098 C 630.9,368.098 630.9,363.597 628.201,363.597 z M 532.8,72.897 C 530.101,71.096 529.197,67.499 530.999,64.799 C 532.8,62.998 536.404,62.094 539.103,62.998 C 540.898,64.799 541.802,68.396 540,71.096 C 539.103,73.795 535.499,74.699 532.8,72.897 z M 628.201,351.896 L 536.403,351.896 C 533.697,351.896 533.697,356.397 536.403,356.397 L 628.201,356.397 C 630.9,356.397 630.9,351.896 628.201,351.896 z M 627.298,341.099 L 540,341.099 C 537.301,341.099 537.301,345.6 540,345.6 L 627.298,345.6 C 629.997,345.6 629.997,341.099 627.298,341.099 z M 587.701,95.396 L 587.701,95.396 C 586.797,95.396 586.797,95.396 585.899,95.396 C 585.899,94.498 585.899,94.498 585.899,93.601 C 589.502,89.1 589.502,84.6 584.097,80.099 C 576.897,75.598 569.697,76.496 563.401,84.6 C 557.997,92.698 556.201,101.699 563.401,107.098 C 568.799,111.598 574.198,109.797 578.699,106.2 C 578.699,106.2 578.699,106.2 579.603,106.2 C 580.5,107.098 580.5,107.098 579.603,108.002 C 577.801,108.899 575.102,111.599 573.3,113.4 C 573.3,114.297 572.396,114.297 572.396,114.297 C 570.601,113.4 565.203,110.7 561.599,108.001 C 548.097,98.096 548.097,88.196 554.4,80.099 C 561.599,71.098 573.3,70.2 585.002,78.297 C 592.201,83.695 594.003,87.299 594.003,88.196 C 593.1,88.195 590.4,91.798 587.701,95.396 z M 626.4,329.398 L 557.1,329.398 C 554.401,329.398 554.401,333.899 557.1,333.899 L 626.4,333.899 C 629.1,333.899 629.1,329.398 626.4,329.398 z M 593.1,633.6 C 588.599,637.197 587.702,638.998 586.797,638.998 C 586.797,638.998 585.9,639.895 585.9,638.998 C 585.003,638.094 585.003,638.094 585.9,637.196 C 587.702,636.299 588.599,635.394 587.702,634.497 C 587.702,632.695 582.304,627.297 579.604,623.693 L 576,620.098 C 571.499,615.596 568.8,612 567.902,611.096 C 566.998,611.096 566.1,611.096 564.298,612.897 L 563.401,612.897 C 563.401,613.795 562.497,613.795 562.497,612.897 C 561.6,612.897 561.6,612.001 561.6,612.001 C 563.402,611.097 564.299,610.198 569.698,605.698 C 574.199,601.197 576.001,600.3 576.898,599.395 C 576.898,599.395 576.898,599.395 577.802,599.395 C 577.802,600.299 577.802,600.299 577.802,600.299 L 577.802,601.196 C 575.103,602.998 575.103,603.895 575.103,604.799 C 576,605.697 579.604,610.197 583.201,614.699 L 587.702,619.199 C 589.503,620.994 593.1,626.399 594.901,627.297 C 595.799,628.195 596.703,628.195 599.402,626.4 L 599.402,625.497 L 600.299,625.497 C 601.196,626.4 601.196,626.4 601.196,627.298 C 601.196,627.297 598.497,629.099 593.1,633.6 z M 624.599,318.595 L 565.203,318.595 C 561.599,318.595 561.599,323.096 565.203,323.096 L 624.599,323.096 C 628.201,323.096 628.201,318.595 624.599,318.595 z M 622.803,306.895 L 567.903,306.895 C 564.299,306.895 564.299,311.396 567.903,311.396 L 622.803,311.396 C 626.4,311.396 626.4,306.895 622.803,306.895 z M 572.396,194.4 C 568.799,194.4 568.799,198.895 572.396,198.895 C 575.103,198.895 575.103,194.4 572.396,194.4 z M 621.002,296.098 L 577.802,296.098 C 575.103,296.098 575.103,300.599 577.802,300.599 L 621.002,300.599 C 623.701,300.599 623.701,296.098 621.002,296.098 z M 617.398,284.397 L 585.002,284.397 C 581.398,284.397 581.398,288.897 585.002,288.897 L 617.398,288.897 C 621.002,288.897 621.002,284.397 617.398,284.397 z M 605.697,251.096 L 586.797,251.096 C 583.2,251.096 583.2,255.596 586.797,255.596 L 605.697,255.596 C 609.301,255.597 609.301,251.096 605.697,251.096 z M 614.699,273.6 L 588.598,273.6 C 585.001,273.6 585.001,278.095 588.598,278.095 L 614.699,278.095 C 617.398,278.095 617.398,273.6 614.699,273.6 z M 610.198,261.899 L 588.598,261.899 C 585.899,261.899 585.899,266.399 588.598,266.399 L 610.198,266.399 C 613.802,266.4 613.802,261.899 610.198,261.899 z M 594.003,138.595 C 585.899,130.497 585.899,120.598 594.003,112.494 C 602.101,105.294 613.802,104.396 622.803,114.295 C 630.901,123.297 630.901,133.196 622.803,140.396 C 615.597,147.597 603.902,148.495 594.003,138.595 z M 600.299,239.396 L 592.201,239.396 C 588.598,239.396 588.598,243.896 592.201,243.896 L 600.299,243.896 C 603.902,243.896 603.902,239.396 600.299,239.396 z M 625.502,602.094 L 621.899,605.698 C 618.302,610.198 615.596,612.897 611.102,617.399 C 610.198,618.295 610.198,618.295 609.3,617.399 C 606.601,615.596 603.902,613.795 602.997,612.001 C 602.997,612.001 602.997,612.001 602.997,611.097 C 603.901,611.097 603.901,611.097 604.799,611.097 C 609.3,613.796 611.999,612.898 614.698,610.199 C 616.5,608.398 620.096,604.801 620.096,603.897 C 620.096,603 617.397,600.3 611.998,595.799 L 609.299,593.1 L 608.402,594.896 C 604.798,598.499 603.901,599.396 603.901,601.198 C 603.901,603 604.798,603.897 606.6,604.801 C 606.6,605.699 606.6,605.699 605.696,606.597 L 605.696,606.597 C 604.799,606.597 602.997,604.801 600.298,602.096 C 597.599,598.499 594.9,597.602 594.9,597.602 C 594.9,596.698 594.9,596.698 594.9,595.8 C 595.798,595.8 595.798,595.8 596.702,595.8 C 597.599,597.602 599.401,598.499 601.196,597.602 C 602.1,597.602 602.998,597.602 607.499,593.101 L 608.403,592.198 L 605.697,590.402 C 601.196,584.997 598.497,583.202 597.599,582.298 C 596.702,582.298 595.798,583.202 594.002,584.997 L 593.099,585.901 C 593.099,585.901 592.201,585.901 592.201,584.997 C 591.298,584.997 591.298,584.997 591.298,584.101 C 593.1,583.203 594.901,581.402 599.402,576.9 C 602.101,573.297 604.8,571.502 605.698,569.701 C 605.698,569.701 606.602,569.701 606.602,570.598 C 607.499,570.598 607.499,571.501 606.602,571.501 C 604.8,574.2 603.903,575.099 604.8,575.099 C 605.697,576.9 609.301,580.497 613.802,584.997 L 617.399,588.601 C 621.003,592.199 625.503,596.699 626.401,596.699 C 627.298,597.603 628.202,596.699 630.901,594 L 631.799,594 C 632.702,594.898 632.702,595.802 632.702,595.802 C 630.9,597.6 628.201,599.395 625.502,602.094 z M 594.9,228.599 L 594.003,228.599 C 591.298,228.599 591.298,233.099 594.003,233.099 L 594.9,233.099 C 597.6,233.099 597.6,228.599 594.9,228.599 z M 603.902,116.098 C 594.9,124.196 592.201,133.197 596.702,138.596 C 601.196,143.097 606.601,142.199 612.897,135.897 C 620.097,129.601 625.501,120.6 620.097,114.297 C 615.597,109.795 611.103,109.795 603.902,116.098 z M 657.002,174.595 C 650.699,179.096 642.602,175.499 638.101,168.299 C 636.299,166.497 635.402,164.696 635.402,164.696 L 634.498,165.6 C 629.101,170.095 626.401,171.896 626.401,172.8 C 625.503,172.8 626.401,174.595 627.298,176.397 L 628.201,177.294 L 628.201,178.198 C 627.298,179.096 627.298,179.096 626.4,178.198 C 625.502,176.397 624.598,174.595 621.002,170.094 C 618.303,165.599 616.501,163.798 615.597,161.996 L 615.597,161.098 C 616.501,161.098 616.501,161.098 616.501,161.098 L 617.398,161.996 C 619.2,163.797 620.097,164.695 621.002,164.695 C 621.899,163.797 627.298,160.194 631.799,156.597 L 635.402,153.898 C 638.999,151.199 645.301,147.595 645.301,146.698 C 646.198,145.794 646.198,144.896 643.499,142.197 C 643.499,141.293 643.499,141.293 644.396,141.293 C 644.396,140.396 645.3,140.396 645.3,140.396 C 647.102,143.095 647.999,144.896 650.698,148.494 C 651.602,150.295 653.397,152.097 657.001,157.495 C 662.4,165.6 661.502,170.999 657.002,174.595 z M 654.303,566.094 L 651.604,569.698 C 648,574.198 645.301,577.796 642.602,583.2 C 641.698,584.098 641.698,584.098 640.8,584.098 C 638.101,582.295 634.497,579.596 632.702,579.596 L 633.599,578.7 C 633.599,577.796 634.496,577.796 634.496,577.796 C 639.901,580.495 642.6,578.7 644.395,576.001 C 647.101,573.295 648.896,569.698 649.8,568.8 C 648.896,567.897 645.299,565.197 640.798,561.601 L 637.201,559.799 L 636.297,560.696 C 633.598,565.197 632.7,566.094 632.7,567.896 C 633.597,569.698 634.495,570.595 635.399,571.499 C 636.296,571.499 636.296,572.397 635.399,573.295 L 635.399,573.295 C 634.495,573.295 632.7,571.499 629.097,568.8 C 626.398,566.999 623.699,565.197 623.699,565.197 C 622.801,565.197 622.801,564.3 623.699,564.3 C 623.699,563.396 623.699,563.396 624.596,563.396 C 626.398,565.198 628.199,565.198 629.097,565.198 C 630.898,565.198 631.796,564.301 634.494,559.8 L 635.398,557.998 L 633.596,557.101 C 628.198,552.6 625.498,550.799 624.595,550.799 C 623.698,549.901 621.896,551.695 620.094,553.498 L 620.094,554.401 L 619.2,554.401 C 618.303,553.498 618.303,553.498 618.303,553.498 C 619.2,551.695 621.002,549.9 624.599,545.4 C 627.298,540.898 629.1,538.199 629.997,536.398 C 629.997,536.398 630.9,536.398 630.9,537.295 C 631.798,537.295 631.798,537.295 631.798,538.198 C 629.996,540.897 629.099,541.796 629.996,542.7 C 630.899,543.596 635.4,547.2 639.901,550.798 L 645.299,553.497 C 647.998,556.196 653.397,559.799 654.301,560.696 C 656.096,560.696 657,559.799 658.795,557.099 L 659.699,557.099 C 660.596,557.996 660.596,557.996 660.596,557.996 C 658.797,560.696 657.002,563.395 654.303,566.094 z M 651.604,153.899 C 650.7,153.899 648,156.598 646.199,158.399 L 637.204,163.797 C 637.204,163.797 638.101,164.695 638.999,166.496 C 641.698,170.997 646.199,170.997 650.7,167.394 C 656.098,163.797 656.098,159.296 654.304,155.693 C 653.398,154.797 652.501,154.797 651.604,153.899 z M 688.501,216 C 688.501,216 688.501,216 688.501,215.096 C 687.597,214.198 687.597,213.294 686.699,212.397 C 683.102,209.698 676.8,209.698 665.099,209.698 C 663.297,209.698 662.4,210.595 660.598,210.595 L 657.899,212.397 C 656.097,213.294 653.398,215.096 652.501,216 C 651.604,216 651.604,217.795 653.398,220.495 L 653.398,221.399 C 652.501,221.399 651.603,221.399 651.603,221.399 C 651.603,220.495 650.699,218.7 647.999,212.398 C 644.395,207 643.498,206.096 642.601,204.3 C 642.601,203.396 642.601,203.396 643.498,203.396 L 644.395,203.396 L 645.299,204.3 C 646.196,206.999 647.101,206.999 647.998,206.999 C 649.8,206.095 652.499,205.197 654.301,204.3 L 655.198,203.396 C 657,202.498 657.897,202.498 658.795,201.601 C 666.001,192.6 670.495,185.399 670.495,181.796 C 669.598,180.001 669.598,179.097 668.7,177.295 C 668.7,177.295 668.7,177.295 668.7,176.398 C 669.597,176.398 672.297,180.001 674.098,184.496 C 675.9,188.099 676.797,189.901 675.9,191.696 C 674.996,194.402 664.199,207 664.199,207 C 664.199,207 682.196,206.096 684.895,207 C 685.799,207 686.697,207.897 687.594,209.699 C 689.396,213.296 690.3,216.001 689.396,216.001 L 688.501,216.001 L 688.501,216 z M 654.303,536.397 C 644.397,531.896 639.903,521.997 646.199,509.399 C 651.604,499.499 660.599,494.999 670.498,500.397 C 680.404,504.897 684.898,515.694 678.602,527.395 C 673.196,538.198 664.201,541.795 654.303,536.397 z M 670.497,511.2 C 659.701,505.796 649.802,505.796 647.102,512.098 C 644.396,517.496 646.198,521.996 654.302,526.497 C 663.297,530.998 674.1,532.799 677.697,524.695 C 680.403,520.196 678.602,515.694 670.497,511.2 z M 696.599,260.098 C 692.098,261.9 687.597,259.201 684,254.7 C 682.198,257.399 674.101,267.299 673.196,271.799 C 673.196,272.697 673.196,274.498 674.1,276.3 C 674.1,276.3 674.1,277.197 673.196,277.197 C 672.299,277.197 671.401,274.498 669.599,268.196 C 667.798,264.599 667.798,262.798 668.702,260.996 C 669.599,259.201 678.601,250.199 679.499,249.295 C 679.499,247.5 679.499,246.596 679.499,244.8 L 676.8,245.698 C 669.6,247.499 666.901,248.397 666.003,249.295 C 666.003,250.199 666.003,251.097 666.9,252.898 L 666.9,253.796 C 666.9,254.7 666.9,254.7 666.003,255.597 C 666.003,255.597 665.1,255.597 665.1,254.7 C 664.202,252.001 664.202,251.097 662.401,244.801 C 660.599,240.301 659.702,238.499 658.797,236.697 L 659.701,235.799 C 660.598,235.799 660.598,235.799 660.598,235.799 L 661.501,236.697 C 662.399,239.396 662.399,240.3 663.297,240.3 C 665.099,239.396 670.496,237.601 675.901,235.799 L 680.402,234.895 C 684.896,233.1 691.199,231.298 693.001,230.4 C 693.898,230.4 693.001,228.599 692.097,225.9 C 692.097,225.9 692.097,224.996 693.001,224.996 C 693.898,224.996 693.898,224.996 693.898,224.996 C 694.801,227.695 695.7,230.401 696.597,233.998 C 697.5,236.697 699.296,241.198 700.2,244.801 C 703.799,253.795 701.997,258.296 696.599,260.098 z M 709.203,443.694 L 707.401,452.696 C 705.599,457.197 704.702,462.595 703.798,466.198 C 703.798,467.096 702.9,467.096 701.996,467.096 C 700.2,466.198 693.898,464.397 693.898,464.397 C 693.898,464.397 693.898,464.397 693.898,463.499 C 693.898,462.596 693.898,462.596 694.801,462.596 C 694.801,462.596 695.699,462.596 695.699,463.499 C 700.199,464.397 702.898,461.698 703.797,457.197 C 703.797,456.3 704.7,452.696 704.7,451.799 L 684,446.4 C 678.602,444.598 675.902,444.598 674.998,444.598 C 674.101,444.598 673.196,445.496 672.299,447.297 L 672.299,448.195 C 672.299,449.098 671.402,449.098 671.402,449.098 C 670.498,449.098 670.498,448.195 670.498,448.195 C 670.498,446.399 671.402,444.597 673.197,439.199 C 674.999,432.896 674.999,431.095 674.999,429.294 C 675.903,429.294 675.903,429.294 676.801,429.294 C 676.801,429.294 677.698,429.294 676.801,430.198 L 676.801,430.198 C 676.801,432.897 676.801,433.795 677.698,434.699 C 678.602,435.595 683.103,436.494 688.502,438.295 L 702.901,441.899 C 705.6,442.797 707.402,442.797 707.402,442.797 C 707.402,442.797 708.299,440.994 709.204,437.399 C 710.101,432.897 709.204,429.295 703.8,427.499 L 703.8,426.595 C 703.8,425.698 703.8,425.698 703.8,425.698 C 706.498,426.595 709.204,427.499 712.801,428.397 C 713.698,429.294 713.698,429.294 713.698,430.198 C 711.902,434.7 710.998,439.2 709.203,443.694 z M 677.697,483.297 C 674.1,482.4 673.196,479.693 674.1,476.098 C 674.997,473.399 678.601,471.596 681.3,473.399 C 683.999,474.295 685.801,476.995 684.897,480.598 C 683.103,483.297 680.403,484.196 677.697,483.297 z M 712.8,295.2 C 711.903,295.2 711.903,295.2 711.903,294.296 L 711.903,294.296 C 710.999,291.597 710.999,290.699 710.101,290.699 C 708.299,290.699 701.1,291.596 696.599,292.494 L 691.201,293.398 C 684.898,295.2 681.302,296.097 679.5,296.097 C 678.603,296.994 678.603,297.899 679.5,300.598 L 679.5,301.495 L 678.603,302.399 C 677.699,302.399 677.699,302.399 677.699,301.495 C 677.699,300.598 676.802,298.796 675.904,292.494 C 675,286.198 674.102,284.396 674.102,282.595 C 674.102,282.595 674.102,282.595 674.999,282.595 C 674.999,281.698 675.903,282.595 675.903,282.595 L 675.903,283.499 C 675.903,286.198 676.8,287.096 677.698,287.096 C 679.5,287.096 684.898,286.198 690.303,284.397 L 696.599,283.499 C 699.298,282.595 705.6,281.698 707.402,280.8 C 708.299,280.8 708.299,279.896 708.299,277.197 L 708.299,276.3 C 708.299,276.3 708.299,275.396 709.203,275.396 L 710.1,275.396 C 710.1,276.3 710.1,278.999 711.902,285.295 C 712.799,291.597 713.697,293.399 713.697,294.296 C 713.697,294.296 713.697,295.2 712.8,295.2 z M 719.103,377.997 C 718.199,384.299 718.199,386.095 718.199,386.998 C 718.199,386.998 718.199,387.895 717.302,386.998 L 716.398,386.998 L 716.398,386.094 C 716.398,384.299 716.398,383.395 716.398,382.497 C 714.603,382.497 708.3,381.6 702.902,381.6 L 701.999,381.6 L 701.102,397.795 L 703.801,397.795 C 710.103,398.699 712.802,398.699 714.604,398.699 C 715.501,398.699 715.501,397.795 715.501,395.096 L 715.501,394.198 C 716.398,393.294 716.398,393.294 717.303,393.294 L 718.2,394.198 C 717.303,395.096 717.303,397.795 717.303,404.097 C 716.399,410.399 716.399,411.297 716.399,413.098 C 716.399,413.098 715.502,413.996 715.502,413.098 C 714.605,413.098 714.605,413.098 714.605,413.098 L 714.605,412.194 C 714.605,409.495 714.605,408.597 713.701,407.693 C 711.906,407.693 706.501,406.796 701.103,406.796 L 694.806,405.899 C 692.101,405.899 685.805,405.899 683.106,405.899 C 682.202,405.899 681.304,406.796 681.304,408.598 L 681.304,409.495 C 681.304,410.399 681.304,410.399 680.407,410.399 C 680.407,410.399 679.503,410.399 679.503,409.495 C 679.503,407.693 680.407,405.898 680.407,400.494 C 681.304,394.198 681.304,392.396 681.304,391.498 C 681.304,391.498 681.304,391.498 682.201,391.498 C 683.105,391.498 683.105,391.498 683.105,392.396 C 683.105,395.095 683.105,395.095 684.002,395.999 C 684.899,395.999 690.305,396.896 697.504,397.794 L 698.402,397.794 L 700.203,380.695 L 697.504,380.695 C 690.305,379.797 687.599,379.797 684.9,379.797 C 684.003,379.797 684.003,380.695 684.003,383.394 L 684.003,384.298 C 684.003,384.298 683.106,385.195 682.201,385.195 C 682.201,384.298 681.304,384.298 681.304,384.298 C 682.201,382.496 682.201,380.695 683.106,374.399 C 683.106,368.097 683.106,367.199 683.106,365.398 L 684,365.398 C 684.897,365.398 684.897,365.398 684.897,365.398 L 684.897,366.295 C 684.897,368.994 684.897,369.899 685.801,370.796 C 686.698,370.796 693.001,371.693 698.4,371.693 L 704.702,372.597 C 709.203,372.597 714.601,373.494 715.499,372.597 C 717.301,372.597 718.198,371.693 718.198,368.993 L 718.198,368.993 C 718.198,368.096 718.198,368.096 719.102,368.096 C 719.999,368.096 719.999,368.993 719.999,368.993 C 719.999,368.993 720,371.694 719.103,377.997 z M 718.198,347.396 C 715.499,347.396 712.8,348.3 708.299,349.197 C 708.299,349.197 708.299,348.3 707.402,347.396 C 707.402,346.498 708.299,346.498 708.299,346.498 C 714.602,345.601 717.301,340.196 717.301,333.9 C 716.397,325.796 710.101,321.295 700.201,322.199 C 691.2,322.199 683.102,327.597 683.102,336.599 C 683.999,340.196 684.897,341.099 687.596,341.099 L 690.302,341.099 C 692.097,340.195 694.802,340.195 695.7,340.195 C 696.597,339.298 696.597,337.496 696.597,335.694 C 696.597,334.797 696.597,334.797 696.597,333.899 C 696.597,333.899 696.597,332.995 697.5,332.995 L 698.398,333.899 C 698.398,335.694 698.398,338.399 699.295,344.696 C 699.295,350.094 700.198,353.697 700.198,353.697 C 700.198,354.594 699.295,354.594 699.295,354.594 C 698.398,354.594 698.398,354.594 698.398,353.697 L 697.5,352.799 C 697.5,350.998 697.5,350.094 696.597,349.196 C 694.801,349.196 693,349.196 690.301,350.094 L 689.397,350.094 C 686.698,350.094 684.896,350.094 684.896,350.094 C 683.101,347.395 682.197,341.996 681.299,335.694 C 680.402,320.397 687.595,313.196 697.5,312.299 C 709.201,311.395 718.196,319.499 719.101,333.899 C 720,341.997 719.103,347.396 718.198,347.396 z M 695.701,239.396 C 694.803,239.396 689.398,241.197 686.699,242.095 L 681.301,243.896 C 681.301,243.896 681.301,245.698 681.301,247.499 C 683.103,251.096 686.699,252.897 693.002,251.096 C 697.502,249.294 698.4,245.698 697.502,242.095 C 697.502,240.299 696.599,240.299 695.701,239.396 z "
   id="path2382" />
</svg>