<svg xmlns="http://www.w3.org/2000/svg" xmlns:xlink="http://www.w3.org/1999/xlink" version="1.1" x="0px" y="0px" viewBox="0 0 100 125" enable-background="new 0 0 100 100" xml:space="preserve"><path fill="#000000" d="M37.386,50.157c0.028,0.016,0.056,0.033,0.084,0.05c0.639,0.388,1.297,0.748,1.972,1.077  c0.053,0.024,0.105,0.049,0.158,0.073c0.269,0.128,0.541,0.252,0.815,0.37c0.086,0.037,0.172,0.076,0.259,0.112  c0.315,0.132,0.632,0.259,0.954,0.378c0.05,0.018,0.1,0.034,0.15,0.054c0.281,0.102,0.566,0.198,0.852,0.289  c0.125,0.041,0.249,0.078,0.374,0.116c0.227,0.069,0.456,0.133,0.686,0.195c0.116,0.031,0.232,0.065,0.35,0.096  c0.316,0.079,0.635,0.153,0.956,0.222c0.125,0.026,0.25,0.05,0.376,0.074c0.233,0.045,0.467,0.086,0.703,0.126  c0.126,0.021,0.251,0.042,0.377,0.061c0.337,0.05,0.675,0.095,1.017,0.13c0.078,0.009,0.156,0.014,0.234,0.021  c0.293,0.027,0.587,0.051,0.883,0.067c0.105,0.006,0.209,0.013,0.314,0.017c0.366,0.017,0.733,0.028,1.103,0.028  s0.737-0.012,1.102-0.028c0.105-0.004,0.209-0.011,0.315-0.017c0.295-0.017,0.588-0.04,0.881-0.067  c0.078-0.007,0.157-0.012,0.234-0.021c0.341-0.035,0.679-0.08,1.016-0.13c0.127-0.019,0.253-0.039,0.379-0.061  c0.235-0.04,0.469-0.081,0.702-0.125c0.126-0.025,0.252-0.049,0.379-0.075c0.32-0.068,0.639-0.143,0.954-0.222  c0.119-0.03,0.236-0.065,0.355-0.097c0.228-0.062,0.454-0.125,0.678-0.194c0.127-0.038,0.253-0.076,0.378-0.116  c0.283-0.091,0.563-0.186,0.841-0.286c0.056-0.021,0.113-0.04,0.169-0.06c0.316-0.119,0.63-0.244,0.941-0.375  c0.088-0.036,0.177-0.075,0.265-0.113c0.271-0.117,0.541-0.239,0.807-0.367c0.055-0.025,0.11-0.051,0.164-0.077  c0.336-0.163,0.669-0.334,0.997-0.513c0.001-0.001,0.003-0.002,0.004-0.002c0.327-0.18,0.648-0.366,0.966-0.559  c0.03-0.019,0.059-0.037,0.089-0.055c6.982-4.282,11.652-12.002,11.652-20.799C74.273,15.926,63.385,5,50.002,5  S25.73,15.926,25.73,29.355C25.73,38.152,30.402,45.874,37.386,50.157z"/><path fill="#000000" d="M92.423,77.171c-4.466-12.962-13.999-21.097-28.339-24.185c-0.326,0.195-0.657,0.382-0.99,0.564  c-0.021,0.011-0.042,0.022-0.063,0.033c-0.343,0.186-0.688,0.363-1.038,0.533c-0.055,0.027-0.111,0.055-0.166,0.082  c-0.368,0.177-0.738,0.345-1.112,0.506c-0.056,0.023-0.112,0.045-0.168,0.069c-0.309,0.128-0.619,0.251-0.932,0.368  c-0.113,0.042-0.227,0.085-0.34,0.126c-0.348,0.125-0.697,0.246-1.049,0.356c-0.092,0.029-0.185,0.055-0.278,0.083  c-0.291,0.088-0.583,0.171-0.876,0.251c-0.142,0.037-0.285,0.075-0.428,0.11c-0.303,0.075-0.607,0.146-0.914,0.212  c-0.129,0.028-0.26,0.054-0.39,0.081c-0.319,0.063-0.639,0.12-0.96,0.172c-0.137,0.022-0.273,0.044-0.411,0.063  c-0.342,0.049-0.685,0.094-1.029,0.131c-0.066,0.008-0.132,0.017-0.197,0.022c-0.387,0.039-0.775,0.067-1.166,0.091  c-0.11,0.005-0.22,0.01-0.33,0.016c-0.415,0.019-0.829,0.032-1.245,0.032s-0.83-0.014-1.245-0.032  c-0.109-0.006-0.22-0.011-0.33-0.016c-0.39-0.023-0.779-0.052-1.166-0.091c-0.065-0.006-0.131-0.015-0.197-0.022  c-0.344-0.037-0.687-0.082-1.029-0.131c-0.138-0.02-0.274-0.041-0.411-0.063c-0.321-0.052-0.642-0.109-0.96-0.172  c-0.13-0.027-0.26-0.053-0.389-0.081c-0.307-0.065-0.611-0.137-0.915-0.212c-0.143-0.035-0.285-0.073-0.427-0.11  c-0.294-0.08-0.587-0.163-0.878-0.251c-0.092-0.028-0.185-0.054-0.276-0.082c-0.353-0.111-0.703-0.232-1.051-0.357  c-0.113-0.041-0.225-0.082-0.337-0.125c-0.314-0.118-0.625-0.242-0.936-0.371c-0.055-0.023-0.11-0.044-0.165-0.067  c-0.375-0.16-0.746-0.329-1.114-0.506c-0.055-0.027-0.109-0.054-0.164-0.081c-0.351-0.17-0.697-0.349-1.042-0.535  c-0.02-0.012-0.04-0.021-0.06-0.032c-0.334-0.182-0.666-0.369-0.993-0.564c-14.38,3.096-23.925,11.267-28.375,24.289  C4.935,84.908,4.91,92.059,5.042,95h89.917C95.09,92.039,95.06,84.819,92.423,77.171z"/><text x="0" y="115" fill="#000000" font-size="5px" font-weight="bold" font-family="'Helvetica Neue', Helvetica, Arial-Unicode, Arial, Sans-serif">Created by Royyan Wijaya</text><text x="0" y="120" fill="#000000" font-size="5px" font-weight="bold" font-family="'Helvetica Neue', Helvetica, Arial-Unicode, Arial, Sans-serif">from the Noun Project</text></svg>